<svg xmlns="http://www.w3.org/2000/svg" xmlns:xlink="http://www.w3.org/1999/xlink" width="146.5" height="105.054" viewBox="0 0 146.5 105.054">
  <defs>
    <clipPath id="clip-path">
      <path id="Path_88942" data-name="Path 88942" d="M195.435,273.341l.062.458.247-.2-.046-.432Zm-2.443-.129v.514l.278-.17v-.468Zm4.706-.062.087.417.211-.226-.067-.4Zm-7.314-.442v.54l.309-.144v-.514Zm9.371-.051.1.37.185-.247-.087-.355Zm-12.092-.823-.051.591.345-.108.051-.55Zm13.928.082.118.329.154-.262-.108-.314Zm-6.368-.576.062.514.35-.314-.046-.514Zm2.119-.1.093.478.3-.339-.072-.453Zm-4.434-.072.036.586.4-.283v-.55Zm-8.049-.566-.1.643.381-.072.1-.6Zm14.4.288.108.422.262-.36-.087-.4Zm-8.78-.257v.648l.442-.247v-.607ZM201,270.26l.118.37.226-.375-.108-.355Zm-13.049-.514-.041.7.514-.206.046-.658Zm16.618.087.129.242.1-.278-.123-.226Zm-9.474-.355.067.555.473-.417-.057-.514Zm7.422-.072.134.319.18-.381-.118-.3Zm-5.421.041.087.514.417-.453-.077-.473Zm-15.2.159.422-.026.149-.653-.422-.026Zm11.043-.386.051.622.514-.391-.031-.586Zm5.992-.067.1.437.36-.473-.087-.417Zm-13.579-.664-.082.772.545-.165.087-.715Zm5.308.165v.689l.581-.355v-.648Zm15.039-.154.051.072h.051l.031.113.062-.267-.113-.19Zm-5.143.118.113.381.3-.483-.1-.365Zm3.251-.252.129.267.139-.386-.118-.252Zm-15.543-.591v.756l.643-.309v-.715Zm13.738.108.031.087.17.087.17-.345-.108-.309Zm-6.918-.154.082.55.586-.514-.062-.514Zm1.9.026.093.489.514-.514-.072-.473Zm1.744-.221.1.422.458-.561-.082-.406Zm-5.694-.1.072.617.653-.473-.051-.6Zm-10.318-.556-.123.844.6-.118.129-.777Zm-3.667.7h.473l.2-.72-.463-.082Zm25.856-.417.129.221.1-.386-.123-.206Zm1.692-.139.118.159.041-.262-.108-.149Zm-6.28.051.108.365.4-.576-.093-.355Zm2.942-.134.123.273.2-.514-.113-.257Zm-12.344-.108.057.689.72-.437-.036-.658Zm-5.046-.293-.036.833.7-.262.046-.782Zm15.852-.123.113.3.329-.586-.1-.3Zm-12.735-.622-.319.144.046.766.1-.051v.041l.19-.972Zm8.085.391.1.453.633-.6-.026-.144-.17-.2Zm-7.823-.514.159.2-.093.514.18-.093v-.73Zm5.992.427.1.514.7-.561-.077-.514Zm10.544-.3.123.175.067-.37-.118-.17Zm-7.057.242.1.391.566-.617-.077-.386Zm5.57-.18.118.221.149-.514-.108-.211Zm-10.261-.566.031.036v-.051Zm13.224.139.108.123v-.242l-.1-.113Zm-4.367.159.108.252.257-.576.417.288-.576-.4Zm-9.058-.17-.576.37.1.586.4-.267v.211l.134-1.214Zm6.861-.339h0l-.447.561.093.329.514-.643-.082-.324Zm-20.707.735.653-.056.175-.854h-.653Zm3.415-.823-.062.915.766-.211.072-.859Zm7.782.185.113.663.838-.489-.087-.643Zm6.049-.386.108.406.041-.036v-.514Zm-10.889-.041.046.849.844-.35v-.807Zm15.225.309.093.273.427-.653L202,264.4Zm-25.264.129.514.082.262-.792-.514-.149Zm17.246-.88.139.514.278-.165-.3-.442Zm3.981.252.273.262.283-.226-.087-.406Zm7.592.046.113.175.1-.483-.108-.17Zm-9.664.067.118.473.818-.566-.1-.473Zm3.4,0,.1.345.674-.633-.077-.345Zm7.54-.34.113.134.031-.35-.108-.134Zm-2.515.242.1.2.211-.6-.1-.2Zm-14.288-.607-.211.8-.483-.9.18.339h-.067l.129.746.9-.447-.1-.72Zm4.506-.041-.113.684.571-.339-.118-.54Zm6.424.144.036.031.031.267.411-.453-.067-.288Zm2.181.17.093.221.026-.062.159.633-.211-.854.129.082.247-.468-.082-.221Zm4.969-.576.093.093v-.216l-.087-.087Zm-11.012-.3.334.365Zm5.195.087-.237.3.077.236.324-.432-.324-.211Zm-2.7,0,.082.283.514-.37-.221-.175Zm-7.638.185.17.617.936-.489-.144-.612Zm-19.236.2.391.19.324-.669-.365-.252ZM202.158,263.085Zm-21.165,0-.087,1,.823-.154.093-.936Zm16.562.468.108.339.844-.545-.087-.355Zm-13.527-.329.041.936.905-.3v-.885Zm15.729-.2v.329l.242-.185-.067-.293Zm4.933.329.087.2.144-.586-.087-.149Zm1.029-.139.1.134.057-.473-.1-.123Zm-18.907-.139.144.833.957-.406-.113-.8Zm16.85.262.082.175.206-.514.247.617-.257-.638h0l.067-.165-.077-.17Zm-3.086-.165.067.231.7-.622-.046-.211h0Zm-23.145.386h.71l.216-.936-.7-.077Zm25.29-.483.067.18.422-.664-.139-.062ZM193.882,263l.139.365.077.1.931-.458-.154-.514Zm12.9-.278.1.1v-.329l-.1-.1Zm-17.385.031.108.36.2.3.89-.412-.175-.689Zm9.526-.633h0l-.88.427.1.273.766-.365v-.334l.129.093-.041-.144Zm6.362,0-.211-.062Zm-3.379.514.046.18.622-.653-.036-.185Zm-9.978-.339.231.561,1.029-.432-.2-.566Zm15.945-.453.082.067v-.19l-.072-.057Zm-4.192.309.051.134.314-.607h-.108Zm-7.2.067-.237.1.149.339.257-.1-.031.334-.849.468.144.411.725-.411-.062-.067.082-.818.057.057.658-.267-.1-.37-.422.175-.087.391-.257-.252h0l-.633-.6Zm7.947,0,.077.129.123-.411.237.4-.267-.453h.046l.072-.226-.067-.123Zm-10.081-.329.211.417,1.029-.36-.185-.427Zm10.914.175.1.026.077-.473-.082-.113Zm-2.273-.1.036.134.417-.514-.062-.093Zm-4.115-.278h.046v.18l.792-.231-.062-.206Zm-25.2.7.576.154.324-.869-.55-.231Zm25.774-.972h.134l-.17-.057Zm4-.067-.206-.031.88.144H204l-.514-.077V261.3Zm-2.325-.031v.031h.118l-.766-.067Zm4.974.37.093.1v-.453l-.087-.087Zm-21.525-.082.17.931,1.029-.365-.139-.89Zm15.78-.334-.6.062.221.077.514-.051v-.051H200.4v-.046Zm-18.635.149.046,1.029.957-.252-.026-.972Zm19.545-.087h.093l.7-.118v-.031h0Zm-14.011.237.257.8,1.029-.422-.221-.782Zm10.889-.463h.031l-.118.108-.221-.123h-.3l.129.154h.283l-.031.149-.036-.082-1.054.252.144.257,1.029-.237-.031-.067-.072-.041.062-.319.139.082h.617l-.1-.165Zm.3-.052.905.144h.1l-1.08-.165Zm-8.487.309.093.154-.093.216.149.339,1.029-.4-.267-.658Zm14.042-.35-.1.159v.087l.165-.252Zm.514-.031-.082.2.046.087.118-.3Zm-12.169.257.288.514.355-.1.262-.653.37.458h.072l-.185-.355-.062.077-.165-.2Zm10.935-.288-.19.108-.041.051.319-.18Zm.2.159v.077l.252-.242-.041-.036Zm-24.76-.206L178.6,262l.874-.1.113-1.029Zm25.2,0Zm2.762-.077h.381v.237l.087.072v-.3h-.468Zm-13.5,0h0l-.1-.118ZM204.05,260.647Zm-7.828.231h.617l-.206-.247h-.746Zm7.484.031h.1l.262-.257H204Zm-.345,0-.725.19h0l.818-.2.391-.221.051-.062Zm.988-.37-.216.329h.082l.2-.3v-.041Zm-8.579.4-.885.159.231.339.838-.149.051-.159.139.129h.041l-.031-.051h0l-.982-.751Zm8.265-.4.067-.026v-.051Zm.988.514h.077l.643.046-.643-.046.113-.54-.067-.051Zm-.453-.216.057.046.134-.339-.036-.087Zm1.116-.376v.267l.072.072.026-.355Zm-1.24-.216-.036.041v.036l.072-.087Zm-10.986.041.36.391-.036.046.458-.062-.314-.447Zm12.241,0-.658.118.808-.144h-.072l-.067-.072Zm-.941-.242-.087.165v.046l.118-.242Zm3.086,0h.005Zm-17.6.262.381.607,1.07-.288-.355-.612Zm-15.158.782.627.057.221-.437v.041l.154-.6-.746-.165Zm20.059-1.029-.159-.1-.093-.026Zm-7.417.19.375.761,1.06-.37-.345-.761Zm6.969-.37Zm11.645.3.082.062v-.391l-.077-.057Zm-21.2-.041.314.91,1.06-.386-.278-.885Zm-15.43.442.442.273.406-.736-.4-.345ZM205,259.65ZM205,259.65Zm-10.7.18.175.051-.833-.041-.185.041.293.283,1.09.072-.334-.345.411.118-.355-.185h.185l-.787-.226Zm-11.83.026.206,1.029,1.029-.324-.175-.988Zm22.513-.211h0l-.165.329-.257.175.4-.473v-.031l-.432.514-.36.257.7-.489h-.026l.221-.432v-.051Zm.514-.319-.051.411-.329.159.087-.314h-.026l-.123.442.031.041.041-.154h0l.73-.35-.314.149.046-.437Zm-14.792.041.447.545,1.07-.113-.437-.566Zm-11.1-.031.051,1.142,1.029-.2-.036-1.07Zm25.964-.17v-.041l-.046-.036v.124l-.262.237v-.093l-.031-.046-.051.19-.093.082.607-.514Zm1.466.1.077.051-.015-.288-.072-.041Zm-17.544-.113.19-.2Zm-1.322-.123.478.725.514-.134-.051-.1.365-.376-.252-.4Zm4.6-.082-.237-.17-.087-.031Zm13.147.288.057.041v-.514l-.057-.036ZM208.659,258.631Zm-3.4.453.226-.592h0Zm.221-.55-.046.242h0l.057-.314Zm-13.465.257.067.026-.972-.087.514.473.88.093-.237-.221.411-.057-.262.031-.2-.2.458.165-.653-.411-.514-.175Zm-6.332-.062.077.18h0l.36.694,1.06-.35-.432-.88Zm-14.273.669.628.237.4-.931-.6-.324Zm34.934-1.214.036.3.067.036-.046-.391h0Zm-23.269.206.375,1.029,1.07-.36-.345-1.029Zm22.41.1.026-.067.067-.37h0ZM190.739,257.921Zm14.916-.087v.514h.031v-.622Zm-25.28,0,.242,1.157,1.07-.288-.211-1.1Zm9.7-.221.411.17.211.108-.71-.375ZM189.561,257.978Zm-.144-.036-.921.108.576.689.473-.046-.386-.591.612-.175-.468-.545-.514-.046Zm1.075-.206-.6-.463h-.051Zm16.325-.309.062.026-.051-.232h-.057Zm-.905.231h.031l-.051-.514h-.036Zm-32.918.566.808.154.309-1.08-.787-.252ZM209.312,256.929Zm-20.167-.072.293.221-.422-.165.514.386.288.062-.365-.283h0l-.293-.226ZM206.283,256.785Zm-27.852.185-.818.051.041.859-.4.586-.694-.046-.129,1.2h.6l-.139-.55.8-1.26.159.432.849-.113v-.082l-.062.062-.262-1.353.041.216m27.3-.149h0v-.031h0ZM208.222,256.548Zm-1.99.036-.031-.154h-.046l.046.242-.108.293.262-.71Zm-.555-.355.036.514-.051.648.057-.7h0l-.031-.514Zm-38.113.777.483.365.324-.514h0l-.1-.581-.149-.154Zm13.548-.545.442,1.162,1.06-.345-.411-1.132Zm-1.065-.077-.067-.427Zm-.067-.427Zm-5.467,1.126.967.041.149-1.193-.977-.185Zm5.447-1.24h0M179.959,255.756Zm7.8.653-.859-.355.334.334-.237.036.262.514-.566-.026.339.4-.571.154.134.3-.293.134.375.54,1.029-.262-.514-.792.869-.108-.6-.73.787.093-.741-.735.54.257-.89-.6Zm-7.8-.669-.031-.165.031.165m25.784-.159h0l.087.458h.026l-.093-.478Zm-17.657.607.154.077-.849-.725Zm-9.551-.514.159.746-.3.309,1-.993.3,1.029.2-.046-.247-1.214Zm8.836-.134-.093-.077-.062-.026Zm-.591-.216.165.077-.165-.159-.216-.1Zm-17.313.879.669.324.473-.982-.627-.422Zm13.162-1.409.031.129h-.442l-.54.2.638,1.178.972-.37-.617-1.168Zm-6.784-.242.057,1.358,1.065-.1-.046-1.265Zm-4.3-.237-.314,1,.849.242.36-1.142-.694-.293Zm7.746,0,.514,1.306.139-.051-.123-.761.725-.329-.175-.473Zm3.086-.591.242.921.288.427.823-.35-.329-.483-.952-.314-.082-.237Zm1.26.057.242-.108-.1-.134.782.478.463.514-.746.2.669.807-.905.293.633.905-1.029.334.55,1.029,1.029-.35-.458-.885.921-.283-.576-.833.8-.165-.622-.761h.664l-.73-.777.54.278-.823-.772.4.514-.555-.447.077.072h-.334l.154.36-1.2-.725Zm1.132-.4-.159-.154-.057-.026Zm-11.748.1-.129.874.993.113.19-1.26-.391-.087Zm3.842-.2.293,1.4,1.075-.231-.267-1.332Zm-13.152.447.339.453.566-.586-.293-.514Zm16.191-.72.71,1.342.6-.283-.1-.607h.165l-.447-.864Zm-14.031.314.514.468.55-.828-.453-.55Zm9.809-1.234.046.237,1.029-.216-.031-.149Zm-1.183.566-.154.087v.628l1.07-.041v-1.2l-.386.046v-.211l-.607-.031Zm-6.63.17.694.422.561-1-.648-.514Zm9.772-.8.514,1.44.988-.37-.514-1.4Zm5.257.442.267.309v.051Zm-.3-.8-.221-.2-.221.139.643.746-.581.319h0l1.029.381-.206-.679.643.406.3.19-.3-.19h0l-1.162-1.332Zm-2.351.057.9,1.4.71-.473-.916-1.425Zm-.638-.643.036-.046-.1-.051Zm-9.85,1.157.869.329.432-1.173-.833-.437Zm8.867-1.687v.952l.375.766.792-.514-.432-.879-.679-.376Zm1.759-.062,1.075,1.486.4-.447-.278-.386v.283l-1.193-.941Zm-8.867,1.065,1,.19.247-1.306-.988-.3Zm7.16-2.057.036.062.031-.154Zm-2.392.17.231.7h.108v.4l.149.468.211-.093-.113-.031.18-1.486.283.087-.129-.4Zm-3.174,1.1h1.06v-1.409l-1.07-.113Zm-10.8-1.142.35.561.669-.566-.288-.622Zm16.49-.314.993.591-.628-1.075Zm-14.206.278.514.576.694-.772-.453-.658Zm2.14-.149.7.514.648-.977-.638-.612Zm7.561-1.142.226,1.584,1.029-.206-.216-1.512Zm4.506-.159v.051l1.1,1.7.149-.7-.36-.561-.648-.72Zm-10.071,1.029.864.422.514-1.157-.823-.514Zm8.229-.7.561,1.281.411.123.422-.381-.715-1.63Zm-.386-.555.046-.057-.087-.072Zm-6,.838.993.262.334-1.312-.545-.211-.448-.082Zm7.715.206.237-.617-1.106-1.085Zm-4.629-1.461.365-.082-.365-.206Zm1.574-.206.453,1.656.854-.468-.231-.869-.664-.514Zm-2.932-.293-.087,1.193,1.029.051.087-1.173-.751-.375-.216-.031Zm5.329-.514.226.237-.18-.365Zm-3.482-.7.447.247v-.3Zm1.975.226.658.514.175-.077-.386-1.06Zm-12.174,0,.514.669.792-.679-.432-.746Zm2.2.18.674.622.751-.895-.622-.73Zm-4.552-.514.345.658.761-.473-.273-.715Zm6.584.514.082.051,1.1-.134.288-.514-.782-.617Zm-9.114-1.039.206.591.679-.288-.144-.628Zm10.966.88.4.144.226-.592.561.129.221-.612-.921-.442Zm-13.681-1.543.062.484.561-.211v-.514Z" transform="translate(-156.34 -244.24)" fill="none"/>
    </clipPath>
    <clipPath id="clip-path-2">
      <path id="Path_88943" data-name="Path 88943" d="M157.251,200.395l.247.113-.139-.993-.231-.036Zm-4.305-.921.293.226-.062-1.137-.278-.134Zm6.748-1.3.355.165-.247-1.029-.324-.082Zm-11.573-.334.329.37.062-1.26-.324-.262Zm8.034-.118.406.3-.17-1.162-.381-.206Zm-3.991-1.029.458.468-.051-1.27-.437-.355Zm9.083-.766.448.2-.329-.977-.411-.113Zm-2.906-.1.514.334-.262-1.065-.478-.242Zm-3.292-.561.571.514-.159-1.142-.54-.391Zm-12.257.134.35.55.247-1.368-.355-.427Zm4.948-.391.514.669.123-1.348-.478-.514Zm11.974-1.029.607.319-.334-.895-.566-.242Zm-8.332.211.617.694V193.7l-.592-.571Zm10.714-.4.514.185-.386-.828-.514-.123Zm-5.092,0,.674.473-.247-.936-.638-.391Zm-3.035-.628.73.648-.118-.952-.72-.591Zm4.259-.808.761.4-.3-.71-.72-.324Zm2.227-.093.689.257-.37-.689-.643-.2Zm-13.085.257.627.91.2-1.178-.622-.777Zm8.348-.417.828.514-.2-.7-.792-.463Zm-12.8.514.483.9.36-1.373-.514-.746Zm19.478-.772.607.144-.417-.658-.566-.093Zm-11.778.206.761.838.062-.926-.741-.73Zm2.309-.6.874.694-.051-.674-.844-.612Zm-15.909.628.339.771.514-1.43-.365-.633Zm19.807-.946.9.375-.226-.478-.859-.324Zm2.057-.041.828.257-.309-.514-.787-.216Zm-4.4-.242.952.514-.113-.437-.916-.448Zm6.224-.093.751.144-.365-.514-.71-.108Zm-5.174-.406.993.267-.139-.247-.936-.267Zm1.939,0,.926.17-.216-.283-.895-.144Zm-3.06-.319,1.029.087-.051-.046-1.029-.087Zm-1.029.057,1.029.365-.026-.19-1.029-.334Zm2.844-.067h.977l-.123-.1h-.952Zm-4.295.216.982.622.036-.37-.957-.571Zm-2.057.154.89.859.139-.6-.869-.772Zm9.32-.324.854.072-.278-.3-.818-.057Zm3.086.108.674.046-.406-.473h-.628Zm-15.307.267.756,1.029.283-.849-.746-.921Zm10.734-.854.154.129.91-.067-.18-.129Zm-6.65-.139,1.06.463.118-.108-1.029-.437Zm-21.638,1,.206.514.591-1.224-.242-.422Zm13.62-.278.591,1.142.478-1.106-.612-.993Zm17.369-.967.288.293h.777l-.324-.309Zm-2.407.082.108.041.833-.3L158.82,189Zm1.106-.211.2.154.833-.144-.221-.154Zm-9.654-.1-.231.2.982.751.221-.262L149.5,189l.118.062h.293l-1.029-.514-.3-.031Zm12.21-.514.324.3.689-.1-.35-.314Zm-2.531.149.139.072.746-.36-.149-.062Zm-21.345.8.422,1.152.684-1.322-.468-.988Zm22.492-1.029.231.17.746-.216-.252-.17Zm-1.137-.1h.082l.617-.55h-.093Zm-15.975-.051.679,1.229.581-.689-.7-1.111Zm16.891-.483.159.087.663-.411-.18-.093Zm2.6-.237.35.293.607-.175-.375-.314Zm-15.975.237-.417.057.735.679-.375.375.854,1.029.376-.463-.813-.885.149.134.453-.1-.833-.73.067.041.514.18-.988-.607-.514-.19Zm14.546-.231.262.185.658-.283-.278-.19Zm-1.368-.206.1.057.514-.586-.113-.051Zm-28.957.484.262,1.029.864-1.42-.324-.869Zm7.551-.6.463,1.373.823-.941-.514-1.219Zm22.333-.447.185.118.566-.468-.2-.113Zm-1.08.165.057.041.36-.7-.062-.036Zm3.734-.514.37.283.514-.247-.391-.3Zm-1.45.026.278.2.571-.345-.293-.2Zm-18.182-.355-.607-.134.6.7-.612.175.746,1.147.669-.252-.628-.864v.031l.73.129-.669-.792.735.391-.89-.658-.71-.4Zm16.6.077.118.082.427-.622-.123-.082Zm-21.294-.664.514,1.394.931-.437-.561-1.291Zm22.245.113.211.134.468-.514-.216-.139Zm-1.27.067.082.077.262-.72-.077-.072Zm2.489-.422.3.2.478-.4-.319-.206Zm-2.726-.062.051.072.113-.741-.051-.067Zm-27.492.226.273,1.4,1.09-1.162-.365-1.234Zm28.428-.489.144.108.334-.648-.149-.113Zm.957-.6.231.154.375-.556-.237-.159Zm-39.522.478.139.777.962-1.27-.211-.643Zm38.061-.473.1.108.175-.725-.1-.108Zm-19.386-.247-.8-.36.432.7-.864-.093.545,1.24,1.029.046-.514-.926.988.411-.571-.818.895.6-.71-.664-.946-.648Zm22.055-.159.319.2.391-.447-.334-.216Zm-3.086-.175.082.1v-.73l-.077-.1Zm-26.093-.252.257,1.543,1.25-.648-.375-1.435Zm27.44-.581-.226.643.175.139.237-.669-.139-.113Zm-25.877.725,1.332-.062-.365-1.425h-1.2Zm-10.709-1.157.093,1.3,1.322-1.281-.206-1.137Zm12.663-.715-1.09-.406.237,1.24,1.368.447-.3-.988,1.2.725-.345-.813,1.029.807-.447-.6-1.173-.957.293.453-.946-.6Zm-10.343-1.214v1.636l1.543-.849-.154-1.471Zm31.843-.679.123.149-.19-.617-.118-.144Zm3.086,0,.324.2.108-.612-.334-.216Zm-1.939-.041.216.19-.1-.725-.216-.2Zm-30.768-.679-.1,1.692,1.708-.206-.087-1.589Zm29.832-.077.19.185-.18-.669-.185-.19Zm1.569-.067.283.211v-.674l-.293-.221Zm-27.939-.226-1.543-.463-.18,1.486,1.744.442v-1.08l1.646.921v-.977l1.306,1.029v-.72l1.029.962-.1-.411-1.368-1.317-.062.283-.951-.771-.144.586-1.24-.741Zm25.5-.514.159.17-.237-.591-.159-.165Zm3.364,0,.365.211.036-.617-.381-.221Zm-2.057,0,.262.211-.18-.725-.262-.221Zm3.245-.658.437.206.077-.55-.463-.216Zm-47.669.422-.031,1.029,1.456-1.188-.1-.895Zm43.354-.514.237.206-.237-.648-.237-.211Zm-1.029-.19.123.139-.252-.468-.123-.144Zm2.777.118.339.226-.087-.669-.35-.237Zm-2.752-.782.206.185-.283-.561-.206-.19Zm1.445,0,.319.231-.206-.674-.319-.237Zm2.206-.046.417.221-.036-.622-.427-.231Zm-4.536-.473.077.108-.211-.334-.082-.108Zm-38.1.19-.216,1.543,1.867-.972.031-1.384Zm43.77-.468.489.2V175.5l-.514-.211Zm-4.567,0,.293.226-.288-.628-.293-.226Zm-1.224-.231.159.154-.283-.442-.165-.159Zm3.086.129.4.242-.154-.658-.406-.252Zm-37.809-.73L121.2,176.8l2.1-.345.2-1.656Zm41.873.17.514.154.046-.514-.555-.17ZM156.4,175l.257.206-.329-.514-.257-.206Zm1.6,0,.381.247-.262-.653-.386-.252Zm-33.947.946,2.171.4.365-1.63-1.9-.437Zm36.282-1.06.478.226-.1-.622-.514-.237Zm4.763-.206.514.108.051-.422-.54-.123Zm-38.5.679,2.124,1.085.386-1.106,1.744,1.358.473-.859,1.27,1.245.463-.468.905,1.029.355-.093-1.517-1.7-.545-.087.391.432-1.2-1.219-.689.3-1.137-.926L129,175l-1.651-.91Zm40.232-1.075.417.062.031-.355-.447-.067Zm1.862-.226h.288v-.267h-.309Zm-13.62-.267.139.18.206.18-.319-.427h0Zm1.543.442.355.237-.339-.6-.355-.247Zm4.8-.206.54.19-.046-.561-.566-.206Zm-28.7,1.543.6.653-1.373-1.98-.736-.833Zm25.9-1.512.463.247-.216-.648-.478-.257Zm-3.343-.715.319.226-.37-.514-.319-.216Zm7.458-.113.566.134v-.514l-.607-.144Zm-5.7.1.447.257-.319-.638-.453-.267Zm2.433-.231.514.226-.154-.617-.566-.242Zm-28.042,1.466.874.406-1.543-2.057-1.1-.653Zm32.82-1.97.514.077v-.432l-.576-.087Zm-8.744.041.427.252-.386-.586-.432-.257Zm-1.584-.262.267.19-.36-.411-.267-.19Zm3.708.036.54.257-.273-.648-.555-.221Zm8.322-.355h.442v-.36l-.473-.026Zm-5.442.144.6.18-.1-.566-.633-.2Zm7.2-.823.036.267h.293v-.262ZM154,171.813l.391.242-.417-.514-.386-.237Zm1.893-.051.514.267-.37-.628-.514-.278Zm5.874-.442.617.113-.046-.514-.663-.129Zm-3.348.087.622.226-.211-.622-.648-.242Zm-54.824.046-.041.674,1.281-.823-.062-.581Zm50.642-.37.514.267-.432-.571-.514-.267Zm-1.759-.242.339.211-.4-.4-.329-.211Zm3.991-.067.627.257-.319-.638-.648-.278Zm6.758-.262.581.046v-.442l-.638-.082Zm-10.637-.2.483.252-.463-.483-.473-.252Zm6.83.067.674.175-.144-.581-.715-.185Zm-4.8-.18.633.273-.417-.617-.638-.283Zm-46.656.036-.339,1.291,2.057-.905.144-1.152Zm56.85-.818.057.37h.473v-.37Zm-34.523,1.96.329.638-.237-.406-1.065-1.281,1.368,2.356.916,1.065-.792-1.394-.736-1.7-.725-1.414Zm26.946-1.7.7.226-.252-.628-.746-.242Zm-4.392-.1.617.273-.478-.561-.617-.273Zm-40.432-.262-.73,1.7,2.459-.432.432-1.579Zm38.493.051.432.231-.442-.386-.417-.226ZM119.215,170.4l2.572,1.162.741-1.126,2.356,1.8,1.029-.946,1.62,1.656,1.126-.514,1.029,1.276h1.08l-1.677-2.1-1.337-.278.483.6-1.4-1.492-1.373.247-1.471-1.183-1.414.844.2-.309-2.2-1.1Zm-3.6.231,2.608.35.736-1.7-2.268-.4Zm50.966-1.713.057.273.314-.051v-.273Zm-5.93.437.689.1-.087-.514-.741-.108ZM129.1,171.34l1.373,1.029-1.394-2.335-1.569-1.317Zm26.1-2.186.73.262-.37-.648-.751-.273Zm-4.115-.283.586.262-.514-.473-.576-.257Zm2.171-.2.736.278-.458-.617-.751-.283Zm4.958-.123.761.165-.19-.6-.813-.175Zm3.847-.159h.638l-.051-.463h-.694Zm-12.833-.411.514.252-.483-.376-.514-.242Zm2.109.154.73.273-.514-.55-.725-.273Zm-22.286,1.615,1.106,1.322-.982-2.119-1.229-1.543ZM155.919,168l.808.226-.3-.653-.854-.237Zm-28.906,2.057,1.723.756-1.543-2.51-1.985-1.1Zm22.389-2.572.71.273-.514-.458-.694-.262Zm14.124-.417.087.386.514-.051-.046-.386Zm-9.773.478.844.262-.411-.658-.869-.273Zm5.586-.19.772.077-.139-.55-.823-.087Zm-7.643-.175.854.278-.514-.622-.874-.278Zm-4.31-.478.669.257-.514-.35-.638-.252Zm17.822-.334.077.283.35-.093-.046-.283Zm-15.538.406.854.273-.545-.514-.859-.273Zm-20.342,1.234.226.905-.206-.7-.823-1.6.643,2.057.761,1.461-.257-.854-.231-1.543-.4-1.543Zm27.466-1.3.864.154-.242-.633-.921-.165Zm-9.186-.453.844.262-.566-.437-.823-.262Zm12.889-.514.154.514h.715l-.093-.489Zm-6.121.6.926.216-.35-.679-.977-.231Zm-27.229,1.718,1.625,1.378-1.08-2.356-1.764-1.656Zm24.976-1.954.967.252-.447-.679-1.029-.267Zm-6.717-.468.808.252-.514-.324-.771-.247Zm4.572.242.988.267-.514-.633-1.029-.267Zm-2.129-.278,1,.257-.566-.514-.993-.257Zm9.952-.134.874.062-.18-.591-.941-.072Zm-12.138-.252.988.242-.571-.417-.962-.242Zm16.289-.432.123.411.6-.093-.072-.411Zm-34.24,2.057,1.265,1.594-.648-2.057-1.353-1.8Zm15.651-2.165.962.231-.514-.288-.921-.231Zm11.83.329.982.144-.283-.674-1.029-.159Zm-26.823,1.147.844,1.656-.283-1.821-.88-1.78Zm1.106-.566v1.389l.211-.926.37-.766.406-1.085-.576,1.178-.129.339.031-.134.031-1.4Zm-.514.211.4,1.584.031-1.6-.406-1.641Zm23.742-1.029,1.06.206-.391-.72-1.111-.221Zm-4.536-.154,1.126.247-.514-.648-1.147-.252Zm-2.217-.118,1.132.231-.561-.514-1.132-.231Zm4.444.185,1.1.242-.473-.715-1.142-.252Zm-6.728-.422,1.132.206-.55-.4-1.106-.2Zm19.884-.4.1.3.406-.129-.062-.309Zm-22.3,0,1.106.19-.514-.247-1.065-.185Zm17.539-.273.2.514.823-.041-.134-.514Zm-43.889.8,2.762,2.016,1.543-.967,2.1,2.222,1.862-.473,1.24,1.677,1.9.185-1.774-2.469-2.227-.545.463.628-1.579-1.749-2.027.154-2.057-1.584Zm9.808,1.882,2.181,1.425-1.25-2.654-2.4-1.79Zm6.4-2.258-.442.514,1.07-.8.417-.473Zm10.549-.514,1.26.144-.514-.37-1.229-.149Zm-2.5-.18,1.24.113-.442-.2-1.188-.113Zm4.866.231,1.265.18-.514-.514-1.26-.185Zm-13.373.36-.422,1.1.823-.977.417-1.07Zm2.474-.71-.046.087,1.368-.319v-.072Zm23.032.329,1,.041-.226-.643-1.08-.051Zm-19.1-.514H138.4l-.339-.154h-1.281Zm9.258.468,1.26.216-.514-.674-1.281-.221Zm-11.454-.591L135,163l1.384-.139-.2-.108Zm-4.938.993-.051,1.425.576-1.183.062-1.43Zm9.664-.864,1.363.057-.411-.355-1.327-.057Zm8.991.4,1.234.226-.484-.761-1.286-.237Zm-16.217-.221-.278.432,1.234-.561.247-.406Zm21.088.129,1.116.139-.329-.735-1.2-.154Zm-2.5,0,1.193.2-.417-.777-1.26-.221Zm-40.453.622,2.983,1.219,1.471-1.543-2.572-1.147ZM137.31,162.4l.247.35,1.42-.062-.283-.339Zm-8.229,1.389.4,1.692.319-1.414-.386-1.733Zm31.149-1.322.17.448.689-.139-.108-.447Zm-18.208.386,1.373.118-.463-.545-1.363-.129Zm-8.157-.216-.1.381,1.358-.381.067-.36Zm-8.147,2.16,1.826,1.733-.741-2.284-1.944-2.011Zm9.772-2.459.082.35,1.42-.206-.118-.339Zm-3.816.422-.437,1.07,1.029-.736.427-1.029Zm-3.652.972.89,1.841v-1.661l-.89-1.949Zm-1.162.267,1.378,1.867-.319-1.954-1.425-2.057Zm-21.134-.483,2.978.334,1.029-1.63-2.6-.381Zm38.576-.967,1.373.175-.478-.715-1.4-.185Zm-4.351-.257,1.445.031-.35-.571-1.445-.041ZM96.07,162.03l-.309.921,1.893-.633.139-.833Zm5.545-.273-.844,1.456,2.685-.339.545-1.358Zm31.329.242-.319.926,1.209-.514.314-.91Zm-2.237.406-.087,1.445.818-.952.1-1.44Zm26.231-.905.262.586.946-.072-.18-.586Zm-10.287.751,1.363.206-.468-.828-1.42-.221Zm-8.867-.828.2.627,1.471-.077-.211-.612Zm-16.1,3.132,2.649,1.193-1.543-2.875-2.937-1.625Zm12.74-3.04-.149.8,1.348-.355.144-.782Zm1.62-.19.031.7,1.43-.206-.036-.684Zm25.717,0,.134.339.489-.18-.087-.35Zm-12.715.591,1.332.2-.437-.864-1.409-.211Zm-6.748-.093,1.466.123-.4-.777-1.492-.134Zm11.984-.108,1.137.036-.273-.715-1.25-.036Zm-2.726,0,1.281.108-.37-.818-1.353-.149Zm-22.019.278.36,1.769.591-1.193-.334-1.8Zm2.258-.71-.129,1.435,1.029-.71.149-1.425Zm8.466,0,1.507.057-.283-.859-1.543-.072Zm4.351,0,1.466.18-.427-.921-1.543-.2Zm-16.49.329L129,163.62l.324-1.461-.854-2.088Zm9.963-1.641.159,1h1.507l-.129-.977Zm-4.943.432-.175,1.409,1.2-.463.18-1.378Zm25.1-.329.221.514.818-.18-.149-.514Zm-21.916-.278V161l1.445-.123.046-1.132Zm-1.63.093-.2,1.358,1.348-.242.226-1.327Zm12.293.761,1.456.19-.427-.972-1.543-.211ZM123,162.545l2.443,1.872-.864-2.572-2.608-2.217Zm7.365-2.057.3,1.81.823-.993-.257-1.826Zm-3.868.905,1.435,2.124v-1.769l-1.435-2.289Zm16.047-.977,1.543.154-.345-1.029-1.61-.175Zm12.344-1.065.334.669,1.1-.093-.231-.669Zm-30.182,2.258,1.97,2.088-.37-2.14-2.057-2.34Zm24.8-1.44,1.409.139-.4-.936-1.543-.159Zm2.731-.257,1.3.036-.329-.818-1.409-.046Zm-11.83-.077,1.543.123-.221-1.2-1.646-.149Zm-8.934-.545.221,1.826,1.029-.7-.165-1.821Zm28.155-.556.18.391.607-.242-.123-.4Zm-14.772.833,1.543.2-.391-1.121-1.666-.221Zm-16.243.1.828,2.129.617-1.219-.772-2.191Zm-17.287-1.543L114,160.986l2.608-.406,1.543,2.232,2.783.411L119.1,160.41l-3.153-.844.329.514-1.774-2Zm27.018,1.378,1.543.082-.062-1.409-1.62-.118Zm-5.431-1.07.129,1.81,1.234-.442-.067-1.79Zm1.651-.514.041,1.774,1.373-.2.026-1.744Zm1.78,1.543,1.481.031.113-1.672-1.543-.077Zm11-.689,1.543.159-.4-1.09-1.677-.185Zm8.672-1.06.293.581.977-.216-.2-.591Zm-13.373.946,1.63.2-.314-1.312-1.744-.237Zm-16.1.314,1.42,2.351.355-1.543-1.384-2.474Zm23.48-.761,1.466.051-.37-.957-1.6-.072Zm11.074-.751.129.257.355-.231-.1-.262Zm-8.482-.216.422.777,1.276-.093-.3-.777Zm-23.109.838.73,2.207.885-.962-.658-2.237Zm-9.958,2.057,3.086,2.011-1.029-2.927-3.307-2.453Zm4.711-1.507,2.057,2.428v-1.934l-2.057-2.639Zm16.2-.633,1.651.216-.2-1.569-1.769-.267Zm4.629-.447,1.661.2-.386-1.291-1.805-.231Zm-23.238,1.394,2.623,2.325-.437-2.4-2.711-2.644Zm8.9-2.057.612,2.237,1.111-.689-.514-2.243Zm-24.55-.067L109.283,159l2.366-1.1-2.572-1.949Zm51.038-.633.247.463.766-.309-.17-.478Zm-18.99,1.492,1.62.242-.031-1.888-1.744-.309Zm-5.956-1.625.478,2.227,1.3-.422-.375-2.207Zm-5.143.9,1.337,2.5.669-1.281-1.265-2.6Zm20.574-.257,1.625.093-.417-1.142-1.78-.118Zm-13.635-1.121.339,2.186,1.45-.165-.226-2.145Zm2.171,1.98,1.543.082-.082-2.057-1.672-.139Zm17.3-2.135.386.684,1.173-.237-.267-.7Zm-3.4-.2.514.936,1.471-.077-.36-.931Zm-7.417,1.368,1.738.252-.329-1.543-1.893-.3Zm15.847-1.924.185.319.514-.319-.134-.339Zm-30.454.622,1.214,2.623.957-1-1.121-2.669Zm-27.476.3,3.3,1.286,1.836-1.466-2.844-1.2Zm23.716.447,2.016,2.711.391-1.677-1.965-2.87Zm-8.857,1.774,3.6,1.636-1.332-3.173-3.858-2.135Zm29.739-2.469,1.764.159-.417-1.409-1.939-.206Zm-4.907.514,1.769.329-.221-1.918-1.929-.406Zm-10.832-1.805,1.029,2.664,1.214-.694-.91-2.675Zm18-.792.6,1.162h1.666l-.422-1.147Zm7.083.365.339.561.972-.36-.237-.586Zm-33.278,2.021,2.7,2.736v-2.15l-2.705-3.009ZM138,155.39l1.744.386-.108-2.315-1.9-.483Zm-43.158-1,3.163.417,1.168-1.425-2.772-.437Zm23.351,1.672,3.328,2.572-.514-2.726-3.431-2.957Zm32.65-2.9.514.844,1.4-.237-.345-.854Zm-19.581.021.859,2.654,1.414-.4-.71-2.623Zm1.985-.442.638,2.6,1.574-.118-.514-2.572Zm2.639,2.443,1.677.144-.3-2.438-1.841-.226Zm6.825-1.029,1.872.278-.386-1.754-2.057-.345Zm-17.688-.36,1.908,2.927.73-1.378-1.8-3.035Zm-35.289-1.749-.772,1.106,2.52-.175L92,151.949Zm66.011-.211.267.417.694-.417-.2-.447Zm-10.359.936,1.857.082-.468-1.44-2.057-.118Zm-62.04-1.224-.185.545,1.327-.324.072-.514Zm56.727,1.677,1.919.427-.309-2.2-2.129-.514ZM126.118,152l1.738,3.055,1.075-1.029-1.584-3.112Zm21.762-1.106.617,1.07,1.651-.185-.422-1.06Zm3.724.17.458.7,1.234-.391-.324-.736Zm-30.2,1.6,2.669,3.086.447-1.847-2.572-3.292Zm6.306-2,1.543,3.112,1.353-.7-1.337-3.112Zm9.772,1.975,1.918.514-.278-2.644-2.135-.622Zm19.468-2.443.175.247.375-.355-.144-.278Zm-51.11,2.572,3.318-.314,1.831,2.957,3.636.627-1.81-3.05-4.017-1.111.211.339-2.119-2.443-3.842-.067Zm36.709-1.342,2.011.247-.483-1.841-2.248-.319Zm-12.859-1.6,1.276,3.086,1.574-.37-1.08-3.06Zm-12.128,2.407,3.415,3.055V152.86l-3.436-3.374Zm17.606.144,1.857.231-.514-2.8-2.057-.345Zm-2.207.077,1.744-.057-.8-2.947h-1.96Zm-19.242.437,4.063,2.788-.653-3.143-4.2-3.271Zm31.061-4.192.746,1.409,1.9-.067-.514-1.384Zm-22.6,1.5,2.531,3.343.864-1.476-2.387-3.482Zm30.346-1.142.391.545.957-.514-.283-.581Zm-4.146-.514.6.952,1.543-.37-.427-.946Zm-8.713,1.764,2.114.468-.458-2.366-2.376-.576Zm-16.15-2.057,2.3,3.5,1.24-1.1-2.109-3.564Zm-26.746-.638,3.256,2.289,2.788-1.029-2.752-2.057Zm20.9,1.291,3.369,3.472.514-2.057-3.271-3.724Zm24.688-.432,2.129.144-.6-1.816-2.4-.206Zm11.141-1.358.288.36.612-.514-.226-.406Zm-16.742,2.412,2.145.638-.447-2.937-2.423-.807Zm-11.408-2.7,2.021,3.554,1.543-.7-1.769-3.554Zm-16.613,3.045,4.428,2-1.065-3.317-4.66-2.52Zm25.372-.756,2.093.355-.766-3.143-2.371-.514Zm10.745-3.086.787,1.245,1.862-.267-.561-1.245Zm-17.225-.051,1.713,3.528,1.8-.324-1.44-3.467Zm3.986,3.117,1.975.031-1.1-3.323-2.263-.139Zm17.344-2.849.55.73,1.3-.545-.4-.771Zm-36,2.258,4.166,3.374v-2.783l-4.166-3.77Zm41.585-3.189.159.18.262-.365-.134-.211Zm-15.43,1.754,2.315.427-.648-2.387-2.618-.566Zm-20.512-.982,3.189,3.77,1.029-1.62-3.019-3.919Zm-28.345-.674,3.384,1.378,1.975-1.276-2.927-1.265Zm50.889-1.821.988,1.718,2.181-.051-.7-1.661Zm8.528.427.447.514.946-.638-.345-.581ZM103.3,146.667l4.315.8-1.672-3.148-4.67-1.3Zm41.77-3.225.761,1.029,1.692-.514-.556-1.029Zm-24.874.514,2.906,3.94,1.45-1.162-2.644-4.007Zm15.605,2.083,2.433.771-.643-3.132-2.757-.993Zm-52.17-2.793,3,.561,1.09-1.132-2.659-.55Zm29.523,1.43,4.115,3.852.622-2.32-3.971-4.115Zm19.622.756,2.392.514-.988-3.436-2.741-.7Zm-10.364-2.947,2.572,4,1.805-.7-2.212-3.96Zm2.685-.818,2.16,3.945,2.057-.257L127.5,141.5Zm4.8,3.6,2.279.149-1.425-3.657-2.633-.3Zm20.574-3.338.309.324.545-.6-.252-.37ZM138.431,143.6l2.474.283-.828-2.268-2.819-.391Zm-30.86.931,4.891,3.528-.062-3.179-4.907-4Zm-30.444-3.3h1.991l.36-.725-1.805-.046Zm63.717-.545,1.029,1.456,2.124-.3-.741-1.414Zm4.536.267.674.766,1.384-.684-.514-.818Zm-48.127,2.176,3.791-.206-2.258-2.762-4.238-.175Zm16.973-1.543,3.873,4.187,1.219-1.79-3.636-4.356Zm20.455.674,2.7.689-.926-3.04-3.086-.895Zm-18.516-3.029,3.528,4.367,1.728-1.229-3.2-4.423Zm21.546.8,2.541.031-.957-2.016-2.9-.108Zm8.116-1.471.514.514.962-.761-.411-.581ZM131.056,141.4l2.762.725-1.193-3.657-3.184-.972Zm9.618-3.544.977,1.142,1.9-.571-.725-1.173Zm-32.918,2.289,4.83,4.192.756-2.618-4.67-4.526Zm-5.843.766,5.03,2.176-.664-3.3-5.169-2.685Zm16.886-3.189,3.086,4.4,2.145-.674-2.7-4.356Zm3.189-.756,2.613,4.315,2.448-.149-2.181-4.187Zm5.709,4.115,2.654.319-1.661-3.95-3.086-.514ZM87.511,136.92l3.148,2.35,2.911-.838-2.68-2.119Zm58.872-.556.339.3.514-.689-.283-.355ZM133.437,138.3l2.911.478-1.178-2.783-3.348-.648Zm2.181-3.549,1.358,1.708,2.459-.283-1.029-1.682Zm-26.5,1.867,4.557,4.557,1.471-1.97-4.259-4.742Zm31.545-1.492.838.818,1.543-.787-.643-.874Zm-44.887,1.7,4.675.89L99.1,134.554,94.2,133.227Zm33.309.2,3.209.936-1.4-3.7-3.678-1.2Zm-48.739-3.215,3.122,1.461,1.862-1.029-2.741-1.358Zm31.113.267,4.115,4.742,2.057-1.286-3.724-4.783Zm-9.582,1.6,5.354,3.6.561-2.952-5.226-4.017Zm23.269.766,3.122.54-1.924-4.14-3.636-.8Zm-10.518-3.94,3.6,4.758,2.572-.617-3.127-4.629Zm6.836,4.007h2.906l-2.52-4.444-3.42-.185Zm10.585-2.253,2.983.144-1.332-2.376-3.431-.267Zm8.744-1.63.628.514,1.029-.869-.514-.6Zm-5.817-.941,1.26,1.286,2.186-.6-.982-1.286Zm-61.634-.813,2.474.679.864-.838-2.227-.648Zm67.692-.514.381.288.514-.8-.329-.355Zm-51.84,2.057,3.858-.1-1.97-2.752-4.212-.262Zm37.9.123,3.41.581-1.7-3.189-3.945-.818Zm-23.86-1.224,5.205,4.866,1.79-2.16-4.835-5.051Zm25.666-3.019,1.78,1.96,2.87-.237-1.363-1.9Zm5.658.514,1.029.88,1.739-.833-.823-.936Zm-67.831-.581,1.25.159.211-.437-1.157-.123ZM95.8,131.314l5.262,2.217-.1-3.086-5.267-2.572Zm10.287-2.741,4.7,5.035,2.52-1.322-4.192-5.01Zm16.14,2.973,3.672.833-2.119-4.228L119.509,127Zm-12.308-4.552,4.084,5.02,3.086-.514-3.508-4.881Zm7.941,4.4,3.456.211-2.8-4.6-4.063-.453Zm7.113-3.312,3.441.159-1.852-2.659-3.976-.314Zm9.346-1.805.756.514,1.152-.957-.612-.612Zm-54.86-.818,2.7,2.351,2.731-.643-2.345-2.119Zm48.271-.35,1.615,1.409,2.536-.581-1.255-1.409Zm-30.346,1.728,5.411,3.374,1.281-2.572-5.143-3.662Zm-7.952-.2,4.629.89-.813-3-4.768-1.286Zm44.876-2.572.442.3.442-.952-.386-.375Zm-14.916,2.572,3.786.329-2.417-3.472-4.444-.571Zm-18.881-3.014,5.107,4.264,2.52-1.661-4.629-4.341Zm13.589,2.4,3.8.067-3.086-4.161-4.459-.288Zm20.178-3.9.226.17-.041-.581-.226-.206Zm-13.681-.468,2.3,2.1,3.245-.273-1.805-2.021Zm6.285.514,1.265.905,2.011-.854-1.029-.957Zm-21.937-.35,4.485,4.629,3.389-.669-3.852-4.506Zm-32.671-.087,2.572,1.5,1.543-.761L74.1,121.094Zm19.144.309,5.03,1.949.612-2.772-4.886-2.284Zm21.947-3.148,3.055,2.8,3.672-.165-2.459-2.669ZM82.841,121.66H86.4l-1.461-2.633-3.78-.319Zm43.508-2.006.864.514,1.214-1.1-.715-.607ZM65.528,118.44l1.764.7.6-.581-1.61-.658Zm53.337-.129,2,1.42,2.834-.638-1.584-1.409Zm-12.447-1,3.832,3.281,3.657-.484-3.22-3.163Zm-11.362,1.543,4.984,2.844,2.016-2.093-4.578-3.024ZM126,117.411l.55.355.319-.957-.514-.422Zm-25.83-.154,4.536,3.323,3.086-1.214-3.976-3.333Zm25.4-1.6.319.206-.108-.514-.314-.231Zm-14.916-.54,2.777,1.929,3.338-.586-2.258-1.882Zm6.892.288,1.471.849,2.129-1.029-1.178-.88Zm-43.518-1,2.021,2.258,2.315-.432-1.8-2.057Zm11.316,2.613,4.156.828-.113-2.705L85.274,114Zm17.4-3.894,3.528,2.232,3.282-.926-2.978-2.207Zm13.985-.293.967.55.977-1.111-.813-.612Zm-27.034,1.178,4.356,1.615,1.348-2.3-4.084-1.846Zm5.915-1.306,4.115,2.134,2.572-1.589-3.642-2.232Zm12.807-.936,2.191,1.137,2.777-.967-1.8-1.168ZM67.452,110.6l1.8,1.466,1.147-.545-1.63-1.353Zm48.466.1.653.365.247-.741-.612-.4ZM79.4,111.985l3,.154-.756-2.381-3.086-.365Zm20.121-2.726,2.9,1.306,2.757-1.219-2.469-1.358Zm7.417-.427,1.461.7,1.543-1.25-1.25-.771Zm-45.3-1.255,1.1.607.447-.375-1.029-.571Zm23,1.641,3.395.725.638-2.237-3.256-.936Zm6.82-.905,3.353,1.173,1.965-1.738-3.019-1.265Zm14.057-2.057,1.029.483.653-.874-.936-.514Zm-33.1-.88,1.09,1.882,1.934-.252-.993-1.728Zm24.755.591,1.913.7,1.589-1.543-1.677-.8Zm7.2-1.43.669.293.072-.411-.638-.3Zm-24.544.257,2.361.19.057-1.888-2.32-.36Zm7.947-.453,2.438.6,1.152-1.636-2.248-.725Zm-20.646-2.186.962,1.157.941-.329-.89-1.075Zm27.816.725,1.368.478.7-1.1-1.255-.514Zm-1.805-2.155.88.283.144-.555-.838-.309Zm-30.346-.741.658.432.4-.175-.617-.4Zm12.859,1.029h1.4l-.386-1.332L75.2,99.564Zm9.176,0,1.543.309.247-1.337-1.466-.4Zm-2.669-2.536.931.154-.17-.741-.921-.2ZM71.469,97.46l.514.73.751-.046-.514-.684Z" transform="translate(-61.64 -97.46)" fill="none"/>
    </clipPath>
  </defs>
  <g id="_2040" data-name="2040" transform="translate(0 0)">
    <g id="Group_45473" data-name="Group 45473" transform="translate(48.708 75.495)" clip-path="url(#clip-path)">
      <rect id="Rectangle_15861" data-name="Rectangle 15861" width="54.51" height="60.435" transform="translate(-13.855 19.97) rotate(-55.3)" fill="#fff"/>
    </g>
    <g id="Group_45474" data-name="Group 45474" transform="translate(0 0)" clip-path="url(#clip-path-2)" style="isolation: isolate">
      <rect id="Rectangle_15862" data-name="Rectangle 15862" width="148.485" height="147.966" transform="matrix(0.766, -0.643, 0.643, 0.766, -50.765, 42.535)" fill="#fff"/>
    </g>
    <path id="Path_88944" data-name="Path 88944" d="M241.092,265.215a1.384,1.384,0,0,0-.1-.54,1.25,1.25,0,0,0-.725-.73,1.508,1.508,0,0,0-1.121,0,1.325,1.325,0,0,0-.437.288,1.4,1.4,0,0,0-.288.442,1.543,1.543,0,0,0,0,1.09,1.575,1.575,0,0,0,.288.437,1.45,1.45,0,0,0,.437.293,1.507,1.507,0,0,0,1.121,0,1.281,1.281,0,0,0,.725-.73,1.342,1.342,0,0,0,.1-.55m-.571.386a.767.767,0,0,1-.185.293.746.746,0,0,1-.278.19.977.977,0,0,1-.7,0,.838.838,0,0,1-.278-.19.916.916,0,0,1-.185-.293,1.09,1.09,0,0,1,0-.766.916.916,0,0,1,.185-.293.842.842,0,0,1,.278-.19,1.03,1.03,0,0,1,.7,0,.746.746,0,0,1,.278.19.767.767,0,0,1,.185.293,1.029,1.029,0,0,1,0,.766m3.086-.072v1.029h.463v-1.162a.932.932,0,0,0-.062-.375.58.58,0,0,0-.432-.355,1.632,1.632,0,0,0-.319-.031,1.267,1.267,0,0,0-.309.036,2.219,2.219,0,0,0-.314.1.484.484,0,0,0-.231-.108,1.385,1.385,0,0,0-.293,0,1.947,1.947,0,0,0-.345.031,2.175,2.175,0,0,0-.427.072v1.816h.463v-1.435h.3a.467.467,0,0,1,.17,0,.3.3,0,0,1,.118.067.366.366,0,0,1,.067.134.763.763,0,0,1,0,.216v1.029h.463v-1.029a.278.278,0,0,0,0-.093.313.313,0,0,0,0-.1v-.093a.123.123,0,0,0,0-.062,1.25,1.25,0,0,1,.18-.062h.19a.355.355,0,0,1,.278.087.514.514,0,0,1,.087.35m1.574,1.075a2.207,2.207,0,0,0,.417-.041,1.989,1.989,0,0,0,.391-.108v-1.08a.786.786,0,0,0-.062-.345.478.478,0,0,0-.175-.226.693.693,0,0,0-.262-.129,1.4,1.4,0,0,0-.329-.036,1.8,1.8,0,0,0-.37.036,1.9,1.9,0,0,0-.288.1l-.057.473.154-.062.17-.051.17-.036h.159a.7.7,0,0,1,.309.057.216.216,0,0,1,.118.216h-.36a1.163,1.163,0,0,0-.35.041.76.76,0,0,0-.273.118.653.653,0,0,0-.18.2.644.644,0,0,0-.062.278.513.513,0,0,0,.072.288.61.61,0,0,0,.19.19.936.936,0,0,0,.283.1,1.482,1.482,0,0,0,.334.036m.345-.849v.376a.6.6,0,0,1-.165.041h-.175a.79.79,0,0,1-.288-.052.2.2,0,0,1-.118-.18.216.216,0,0,1,0-.17.334.334,0,0,1,.093-.077.692.692,0,0,1,.139-.036h.288l.149.026m.8-1.029v1.847h.463v-1.435l.185-.031h.165a.453.453,0,0,1,.314.093.447.447,0,0,1,.1.345v1.029h.463v-1.163a.937.937,0,0,0-.067-.381.551.551,0,0,0-.185-.237.721.721,0,0,0-.273-.118,1.8,1.8,0,0,0-.334-.031h-.386a.549.549,0,0,0-.221.031l-.226.036m1.821-.849.91,2.68h.628l.91-2.68h-.514l-.684,2.2-.694-2.191Zm2.716.71a.257.257,0,0,0,.19-.067.242.242,0,0,0,0-.355.278.278,0,0,0-.19-.067.272.272,0,0,0-.2.067.221.221,0,0,0-.077.175.211.211,0,0,0,.082.185.324.324,0,0,0,.19.062m-.231,1.97h.458v-1.862H250.6Zm1.543-.411a1.262,1.262,0,0,1-.365-.057.942.942,0,0,1-.3-.134l-.175.448a1.338,1.338,0,0,0,.175.082.79.79,0,0,1,.206.062l.226.036h.226a1.46,1.46,0,0,0,.37-.046.7.7,0,0,0,.267-.118.474.474,0,0,0,.154-.18.556.556,0,0,0-.108-.628,1.1,1.1,0,0,0-.545-.216h-.144a.7.7,0,0,1-.242-.077.124.124,0,0,1-.062-.1c0-.082.093-.118.288-.118h.165l.175.031.165.052.144.057.165-.427a1.114,1.114,0,0,0-.36-.129,1.973,1.973,0,0,0-.427-.041.927.927,0,0,0-.566.154.514.514,0,0,0-.206.417.468.468,0,0,0,.175.381,1.105,1.105,0,0,0,.514.2l.149.031a.946.946,0,0,1,.242.077.113.113,0,0,1,.067.113c0,.051-.036.087-.1.108a.655.655,0,0,1-.247.036M253.5,264.6a.267.267,0,0,0,.2-.067.221.221,0,0,0,.072-.18.211.211,0,0,0-.072-.175.268.268,0,0,0-.2-.067.262.262,0,0,0-.19.067.252.252,0,0,0,0,.35h0a.324.324,0,0,0,.19.062m-.231,1.97h.463V264.7h-.463Zm2.057-.036a.926.926,0,0,0,.314-.206.817.817,0,0,0,.216-.314.972.972,0,0,0-.216-1.085,1.028,1.028,0,0,0-.314-.211,1.142,1.142,0,0,0-.8,0,1.11,1.11,0,0,0-.319.211,1.029,1.029,0,0,0-.211.314.957.957,0,0,0,0,.772.869.869,0,0,0,.211.314,1,1,0,0,0,.319.206,1.065,1.065,0,0,0,.4.077,1.028,1.028,0,0,0,.4-.077m-.617-.417a.859.859,0,0,1-.165-.113.586.586,0,0,1-.1-.581.712.712,0,0,1,.1-.17.514.514,0,0,1,.165-.113.6.6,0,0,1,.437,0,.516.516,0,0,1,.267.283.607.607,0,0,1,0,.412.4.4,0,0,1-.108.17.515.515,0,0,1-.159.113.63.63,0,0,1-.221.041.645.645,0,0,1-.216-.041m1.435-1.378v1.852h.463v-1.435l.185-.031h.165a.443.443,0,0,1,.309.093.427.427,0,0,1,.108.345v1.029h.463v-1.163a.936.936,0,0,0-.067-.375.552.552,0,0,0-.185-.237.723.723,0,0,0-.273-.118,1.794,1.794,0,0,0-.334-.031h-.386l-.226.031-.221.036m-6.172-17.74Zm.453-.139a.91.91,0,0,1-.432.139v.36a1.394,1.394,0,0,0,.6-.139,1.872,1.872,0,0,0,.895-.864,1.126,1.126,0,0,0,.144-.561.756.756,0,0,0-.226-.628.812.812,0,0,0-.555-.2.782.782,0,0,0-.514.175.684.684,0,0,0-.211.55.73.73,0,0,0,.067.314.986.986,0,0,0,.19.247,1.907,1.907,0,0,0,.242.175.668.668,0,0,0,.237.093,2.259,2.259,0,0,1-.422.339m.082-1.1h0a.442.442,0,0,1,.093-.278.309.309,0,0,1,.478,0,.514.514,0,0,1,.093.314.55.55,0,0,1-.036.2,2.168,2.168,0,0,1-.092.231.823.823,0,0,1-.37-.159.406.406,0,0,1-.165-.309m17.287,8.106h4.362v-6.476h-.823v5.709h-3.616a.956.956,0,0,1-.514-.139,1.326,1.326,0,0,1-.422-.406,2.3,2.3,0,0,1-.283-.628,2.942,2.942,0,0,1-.108-.792v-3.75h-2.711a2.957,2.957,0,0,0-1.312.273,2.212,2.212,0,0,0-.844.725,3.164,3.164,0,0,0-.447,1.029,4.424,4.424,0,0,0-.139,1.1,3.486,3.486,0,0,0,.216,1.255,2.88,2.88,0,0,0,.6.9,2.443,2.443,0,0,0,.859.545,2.747,2.747,0,0,0,.993.19,2.251,2.251,0,0,0,.694-.108,3.006,3.006,0,0,0,.617-.273,1.882,1.882,0,0,0,.514-.381,4.1,4.1,0,0,0,.339-.447,2.186,2.186,0,0,0,.736,1.25,2.057,2.057,0,0,0,1.322.453m-4.207-1.27h0a1.826,1.826,0,0,1-.638-.123,1.718,1.718,0,0,1-.586-.37,1.811,1.811,0,0,1-.437-.638,2.542,2.542,0,0,1-.165-.941,3.174,3.174,0,0,1,.139-.982,2.33,2.33,0,0,1,.381-.736,1.687,1.687,0,0,1,1.337-.627h1.893v2.4a2.006,2.006,0,0,1-.628,1.543,1.647,1.647,0,0,1-.612.365,2,2,0,0,1-.694.123m10.318-6.311h-.417v.267h1.63v-.267h-.679a.463.463,0,0,1-.329-.154.561.561,0,0,1-.149-.406.514.514,0,0,1,.118-.381.453.453,0,0,1,.622,0,.432.432,0,0,1,.118.319h.3a.689.689,0,0,0-.221-.514.721.721,0,0,0-.484-.18.638.638,0,0,0-.514.221.807.807,0,0,0-.185.514.855.855,0,0,0,.072.339,1.909,1.909,0,0,0,.149.242Zm1.63,10.8-.026-.031a4.423,4.423,0,0,0,1.7-.273,2.33,2.33,0,0,0,1.126-.982,5.093,5.093,0,0,0,.643-1.81,15.756,15.756,0,0,0,.2-2.783,10.122,10.122,0,0,0-.118-1.718,3.355,3.355,0,0,0-.453-1.281,1.964,1.964,0,0,0-.869-.792,3.148,3.148,0,0,0-1.389-.273,2.885,2.885,0,0,0-1.389.288,2.274,2.274,0,0,0-.874.777,3.144,3.144,0,0,0-.447,1.116,7,7,0,0,0-.123,1.312,4.3,4.3,0,0,0,.175,1.255,3.22,3.22,0,0,0,.514,1.029,2.536,2.536,0,0,0,.885.679,2.927,2.927,0,0,0,1.255.247h1.78a4.755,4.755,0,0,1-.324,1.183,1.923,1.923,0,0,1-.592.725,1.867,1.867,0,0,1-.818.4,4.933,4.933,0,0,1-1.1.108,2.5,2.5,0,0,1-.514-.051,2.057,2.057,0,0,1-.447-.165v.833c.1.041.206.077.329.118a1.472,1.472,0,0,0,.365.067,4.385,4.385,0,0,0,.514.031m-1.157-6.409.026-.026a5.417,5.417,0,0,1,.108-1.08,2.773,2.773,0,0,1,.329-.844,1.729,1.729,0,0,1,.6-.545,1.857,1.857,0,0,1,.905-.206,1.543,1.543,0,0,1,1.5.792,5.256,5.256,0,0,1,.437,2.412c0,.37,0,.71-.031,1.029s-.026.612-.041.885h-1.877a1.744,1.744,0,0,1-1.5-.612,3.086,3.086,0,0,1-.447-1.8m6.172,5.591v-.01a1.542,1.542,0,0,1-.432-.056,3.089,3.089,0,0,1-.411-.159v.8a.672.672,0,0,0,.221.123.961.961,0,0,0,.283.093,2.5,2.5,0,0,0,.478.041,1.718,1.718,0,0,0,.9-.216,1.584,1.584,0,0,0,.581-.653,3.293,3.293,0,0,0,.329-1.029,7.93,7.93,0,0,0,.093-1.306v-6.568h-.8v6.553a7.514,7.514,0,0,1-.072,1.126,2.327,2.327,0,0,1-.2.741.833.833,0,0,1-.381.406,1.331,1.331,0,0,1-.6.123m-59.149-7.833-1.1-1.1-1.126,1.132,1.106,1.1Zm2.6,1.224v1.5a6.629,6.629,0,0,1-.262,2.057,3.693,3.693,0,0,1-.746,1.409,3.086,3.086,0,0,1-1.183.818,4.758,4.758,0,0,1-3.086,0,3.086,3.086,0,0,1-1.188-.818,3.766,3.766,0,0,1-.746-1.409,6.957,6.957,0,0,1-.262-2.057v-1.5H215.01v1.7a8.413,8.413,0,0,0,.257,2.057,5.329,5.329,0,0,0,.874,1.841,4.429,4.429,0,0,0,1.61,1.312,5.746,5.746,0,0,0,2.52.489h0a5.73,5.73,0,0,0,2.52-.489,4.382,4.382,0,0,0,1.61-1.312,5.144,5.144,0,0,0,.89-1.841,7.717,7.717,0,0,0,.262-2.057v-1.7Zm17.626,4.531a3.959,3.959,0,0,0,1.769-.381,2.638,2.638,0,0,0,1.183-1.162,1.728,1.728,0,0,0,.669.859,1.815,1.815,0,0,0,1,.288h11.583v-1.4H255.01a1.492,1.492,0,0,1-1.27-.571,2.572,2.572,0,0,1-.432-1.543,1.882,1.882,0,0,1,.432-1.327,1.543,1.543,0,0,1,1.147-.447,1.332,1.332,0,0,1,.936.4,1.543,1.543,0,0,1,.314.432,1.627,1.627,0,0,1,.129.309h1.471a4,4,0,0,0-.252-.879,2.664,2.664,0,0,0-.545-.874,2.268,2.268,0,0,0-.859-.571,3.312,3.312,0,0,0-1.224-.206,3.673,3.673,0,0,0-1.306.221,3.03,3.03,0,0,0-1.029.627,2.736,2.736,0,0,0-.653.993,3.776,3.776,0,0,0-.231,1.327,2.472,2.472,0,0,0,.082.612,4.713,4.713,0,0,0,.463,1.1,2.925,2.925,0,0,0,.283.37H246.3a1.455,1.455,0,0,1-.514-.082,1.347,1.347,0,0,1-.411-.247,1.064,1.064,0,0,1-.288-.447,2.216,2.216,0,0,1-.108-.736,4.011,4.011,0,0,0-.247-1.476,2.731,2.731,0,0,0-1.754-1.687,4.563,4.563,0,0,0-2.7,0,2.762,2.762,0,0,0-1.06.622,3.007,3.007,0,0,0-.694,1.065,4.115,4.115,0,0,0-.247,1.476,2.217,2.217,0,0,1-.108.736,1.029,1.029,0,0,1-.288.447,1.266,1.266,0,0,1-.406.247,1.455,1.455,0,0,1-.514.082h-8.229v-7.4H227.19v8.836H237a1.775,1.775,0,0,0,.993-.288,1.7,1.7,0,0,0,.669-.859,2.69,2.69,0,0,0,1.183,1.162,4,4,0,0,0,1.774.381m.041-1.322a1.651,1.651,0,0,1-1.337-.576,2.572,2.572,0,0,1,0-2.891,1.893,1.893,0,0,1,2.669,0,2.237,2.237,0,0,1,.453,1.461,2.191,2.191,0,0,1-.453,1.445,1.62,1.62,0,0,1-1.332.545m.237,5.658a3.145,3.145,0,0,0,.365-.725,2.057,2.057,0,0,0,.134-.725,1.841,1.841,0,0,0-.139-.741,1.636,1.636,0,0,0-.4-.586,1.845,1.845,0,0,0-.638-.386,2.429,2.429,0,0,0-.838-.134,1.913,1.913,0,0,0-.679.124,2.087,2.087,0,0,0-.612.375,2.278,2.278,0,0,0-.514.6,2.708,2.708,0,0,0-.288.7h1.029a1.542,1.542,0,0,1,.4-.612.962.962,0,0,1,.658-.262.983.983,0,0,1,.756.293.89.89,0,0,1,.273.658,1.094,1.094,0,0,1-.108.437,2.118,2.118,0,0,1-.237.437l-2.788,3.636v.813h4.017V261.5h-2.664Zm15.8,2.741a2.1,2.1,0,0,0,.17-.869V257.32a2.057,2.057,0,0,0-.17-.88,1.712,1.712,0,0,0-.447-.633,1.822,1.822,0,0,0-.643-.386,2.013,2.013,0,0,0-.761-.134,2.058,2.058,0,0,0-.766.134,1.941,1.941,0,0,0-.648.386,1.965,1.965,0,0,0-.447.633,2.145,2.145,0,0,0-.17.88v3.138a2.181,2.181,0,0,0,.17.869,2.011,2.011,0,0,0,.447.643,1.94,1.94,0,0,0,.648.386,2.06,2.06,0,0,0,.766.134,2.012,2.012,0,0,0,.761-.134,1.822,1.822,0,0,0,.643-.386,1.749,1.749,0,0,0,.447-.643m-1.08-4.789a1.173,1.173,0,0,1,.3.838V260.4a1.127,1.127,0,0,1-.288.854,1.119,1.119,0,0,1-1.543,0,1.152,1.152,0,0,1-.3-.833v-3.045a1.219,1.219,0,0,1,.3-.838.988.988,0,0,1,.766-.324,1.029,1.029,0,0,1,.772.324m-3.919,5.93v-1.116h.581v-.941H252.7v-2.057h-.962v2.057H249.98l2.356-5.143h-1.029l-2.438,5.354v.73h2.88v1.116ZM247.45,261.3a2.1,2.1,0,0,0,.17-.869V257.32a2.058,2.058,0,0,0-.17-.88,1.842,1.842,0,0,0-1.09-1.029,2.274,2.274,0,0,0-1.543,0,1.816,1.816,0,0,0-1.09,1.029,2.146,2.146,0,0,0-.17.88v3.138a2.182,2.182,0,0,0,.17.869,1.811,1.811,0,0,0,1.09,1.029,2.274,2.274,0,0,0,1.543,0,1.822,1.822,0,0,0,.643-.386,1.863,1.863,0,0,0,.447-.643m-1.1-4.789a1.2,1.2,0,0,1,.3.838v3.029a1.116,1.116,0,0,1-.3.844,1.112,1.112,0,0,1-1.538,0,1.173,1.173,0,0,1-.3-.833v-3.045a1.219,1.219,0,0,1,.3-.838,1.074,1.074,0,0,1,1.538,0m20-10.991-.581-.566-.581.581.581.581Zm-1.162,0-.581-.566-.581.581.581.581Zm6.959,11.012-.566-.581-.586.581.586.581Zm-1.162,0-.581-.581-.581.581.6.556Z" transform="translate(-136.126 -169.09)" fill="#fff" fill-rule="evenodd"/>
  </g>
</svg>
