<svg id="bell" xmlns="http://www.w3.org/2000/svg" width="20.231" height="20.206" viewBox="0 0 20.231 20.206">
  <rect id="Frame" width="20.231" height="20.206" fill="#fff" opacity="0"/>
  <path id="bell-2" data-name="bell" d="M130.629,198.675a2.3,2.3,0,0,1-2.005-1.156.632.632,0,0,1,1.093-.637,1.086,1.086,0,0,0,1.825,0,.633.633,0,0,1,1.093.637A2.3,2.3,0,0,1,130.629,198.675Zm7.316-2.885a.632.632,0,0,0-.075-.668,7.76,7.76,0,0,1-1.553-4.238v-2.952a5.688,5.688,0,0,0-11.377,0v2.952a7.76,7.76,0,0,1-1.553,4.238.632.632,0,0,0,.494,1.026h13.494A.633.633,0,0,0,137.946,195.79Zm-11.74-4.906v-2.952a4.423,4.423,0,0,1,8.847,0v2.952a8.338,8.338,0,0,0,1.154,4H125.052A8.338,8.338,0,0,0,126.206,190.884Z" transform="translate(-120.509 -179.92)" fill="#fff"/>
</svg>
