<svg id="envelope" xmlns="http://www.w3.org/2000/svg" width="20.231" height="20.231" viewBox="0 0 20.231 20.231">
  <rect id="Frame" width="20.231" height="20.231" fill="#fff" opacity="0"/>
  <path id="envelope-2" data-name="envelope" d="M2095.527,198.159h-10.116A2.852,2.852,0,0,1,2082.25,195v-7.587a2.852,2.852,0,0,1,3.161-3.161h10.116a2.852,2.852,0,0,1,3.161,3.161V195A2.852,2.852,0,0,1,2095.527,198.159Zm-10.116-12.645c-1.329,0-1.9.567-1.9,1.9V195c0,1.329.567,1.9,1.9,1.9h10.116c1.329,0,1.9-.567,1.9-1.9v-7.587c0-1.329-.567-1.9-1.9-1.9Zm5.926,6.262,4.141-3.012a.632.632,0,0,0-.743-1.022l-4.142,3.011a.209.209,0,0,1-.246,0l-4.142-3.011a.632.632,0,1,0-.743,1.022l4.14,3.012a1.474,1.474,0,0,0,1.735,0Z" transform="translate(-2080.353 -180.667)" fill="#fff"/>
</svg>
