<svg id="eye" xmlns="http://www.w3.org/2000/svg" width="20.231" height="20.231" viewBox="0 0 20.231 20.231">
  <rect id="Frame" width="20.231" height="20.231" fill="#fff" opacity="0"/>
  <path id="eye-2" data-name="eye" d="M2602.254,3077.213c-1.107-1.854-3.591-4.964-7.785-4.964s-6.678,3.11-7.785,4.964a3.054,3.054,0,0,0,0,3.139c1.107,1.854,3.591,4.963,7.785,4.963s6.678-3.109,7.785-4.963A3.053,3.053,0,0,0,2602.254,3077.213Zm-1.085,2.49c-.97,1.625-3.13,4.348-6.7,4.348s-5.731-2.724-6.7-4.348a1.791,1.791,0,0,1,0-1.841c.969-1.625,3.13-4.348,6.7-4.348s5.73,2.724,6.7,4.348A1.788,1.788,0,0,1,2601.169,3079.7Zm-6.7-4.5a3.583,3.583,0,1,0,3.583,3.583A3.587,3.587,0,0,0,2594.469,3075.2Zm0,5.9a2.318,2.318,0,1,1,2.318-2.318A2.32,2.32,0,0,1,2594.469,3081.1Z" transform="translate(-2584.354 -3068.667)" fill="#fff"/>
</svg>
