<svg id="insta" xmlns="http://www.w3.org/2000/svg" width="26.175" height="26.175" viewBox="0 0 26.175 26.175">
  <g id="Component_17_32" data-name="Component 17 – 32" transform="translate(0)">
    <path id="Path_3" data-name="Path 3" d="M13.087,2.327a40.129,40.129,0,0,1,5.235.145,6.745,6.745,0,0,1,2.472.436A5.107,5.107,0,0,1,23.266,5.38,6.745,6.745,0,0,1,23.7,7.852c0,1.309.145,1.745.145,5.235a40.128,40.128,0,0,1-.145,5.235,6.745,6.745,0,0,1-.436,2.472,5.107,5.107,0,0,1-2.472,2.472,6.744,6.744,0,0,1-2.472.436c-1.309,0-1.745.145-5.235.145A40.128,40.128,0,0,1,7.852,23.7a6.745,6.745,0,0,1-2.472-.436,5.107,5.107,0,0,1-2.472-2.472,6.745,6.745,0,0,1-.436-2.472c0-1.309-.145-1.745-.145-5.235a40.129,40.129,0,0,1,.145-5.235A6.745,6.745,0,0,1,2.908,5.38,5.223,5.223,0,0,1,3.926,3.926,2.459,2.459,0,0,1,5.38,2.908a6.745,6.745,0,0,1,2.472-.436,40.129,40.129,0,0,1,5.235-.145m0-2.327a42.966,42.966,0,0,0-5.38.145,8.977,8.977,0,0,0-3.2.582A5.693,5.693,0,0,0,2.181,2.181,5.693,5.693,0,0,0,.727,4.508a6.626,6.626,0,0,0-.582,3.2A42.966,42.966,0,0,0,0,13.087a42.966,42.966,0,0,0,.145,5.38,8.977,8.977,0,0,0,.582,3.2,5.693,5.693,0,0,0,1.454,2.327,5.693,5.693,0,0,0,2.327,1.454,8.977,8.977,0,0,0,3.2.582,42.966,42.966,0,0,0,5.38.145,42.966,42.966,0,0,0,5.38-.145,8.977,8.977,0,0,0,3.2-.582,6.1,6.1,0,0,0,3.781-3.781,8.977,8.977,0,0,0,.582-3.2c0-1.454.145-1.89.145-5.38a42.966,42.966,0,0,0-.145-5.38,8.977,8.977,0,0,0-.582-3.2,5.693,5.693,0,0,0-1.454-2.327A5.693,5.693,0,0,0,21.667.727a8.977,8.977,0,0,0-3.2-.582A42.966,42.966,0,0,0,13.087,0m0,6.4A6.581,6.581,0,0,0,6.4,13.087,6.689,6.689,0,1,0,13.087,6.4m0,11.052a4.285,4.285,0,0,1-4.362-4.362,4.285,4.285,0,0,1,4.362-4.362,4.285,4.285,0,0,1,4.362,4.362,4.285,4.285,0,0,1-4.362,4.362m6.98-12.942a1.6,1.6,0,1,0,1.6,1.6,1.614,1.614,0,0,0-1.6-1.6" fill="#fff" fill-rule="evenodd"/>
  </g>
</svg>
