<svg id="linkedin" xmlns="http://www.w3.org/2000/svg" width="24.911" height="23.734" viewBox="0 0 24.911 23.734">
  <path id="Path_58554" data-name="Path 58554" d="M14.14,12.732a5.929,5.929,0,0,1,4.982-2.326,5.828,5.828,0,0,1,5.71,5.963c.145,3.115.042,6.242.064,9.363.005.749-.345,1.029-1.064,1.011-.963-.024-1.929-.047-2.889.01s-1.315-.327-1.3-1.273c.038-2.119.014-4.239.01-6.359,0-.578.006-1.158-.039-1.733-.139-1.779-1.183-2.853-2.731-2.841a2.954,2.954,0,0,0-2.906,2.992c-.041,2.5-.016,5.01-.022,7.514,0,1.677-.005,1.677-1.661,1.688-3.581.023-3.58.023-3.581-3.559,0-3.661.025-7.323-.028-10.983-.015-1.06.339-1.484,1.4-1.385.611.057,1.232.006,1.849.009C13.771,10.831,13.771,10.832,14.14,12.732ZM.374,18.715c0-2.2.04-4.392-.018-6.586C.329,11.1.721,10.748,1.71,10.809c.959.059,1.926.033,2.888.013.723-.015,1.05.279,1.047,1.026q-.026,6.933-.011,13.866c0,.74-.319,1.045-1.046,1.03-1.039-.022-2.081-.03-3.12,0-.8.027-1.1-.314-1.088-1.1.025-2.311.009-4.622.009-6.933ZM2.954,8.53A2.8,2.8,0,0,1,0,5.783a2.812,2.812,0,0,1,2.948-2.76A2.753,2.753,0,0,1,5.983,5.785,2.715,2.715,0,0,1,2.954,8.53Z" transform="translate(0 -3.023)" fill="#fff" fill-rule="evenodd"/>
</svg>
