<svg xmlns="http://www.w3.org/2000/svg" xmlns:xlink="http://www.w3.org/1999/xlink" width="192.828" height="183.8" viewBox="0 0 192.828 183.8">
  <defs>
    <clipPath id="clip-path">
      <rect id="Rectangle_18" data-name="Rectangle 18" width="192.827" height="183.8" fill="#fff"/>
    </clipPath>
  </defs>
  <g id="logo-white" transform="translate(0 0)">
    <g id="Group_44" data-name="Group 44" transform="translate(0 0)" clip-path="url(#clip-path)">
      <path id="Path_384" data-name="Path 384" d="M38.825,13.4s-2.9-2.181-5.067-.374c0,0,2.17-4.707,5.425-3.261,0,0,.724-7.61,7.252-8.354V37.3a30.6,30.6,0,0,1-7.252,7.254Z" transform="translate(-16.917 -0.705)" fill="#fff"/>
      <path id="Path_385" data-name="Path 385" d="M30.14,71.886a3.585,3.585,0,1,0-3.6-3.592,3.587,3.587,0,0,0,3.6,3.592" transform="translate(-13.299 -32.431)" fill="#fff"/>
      <path id="Path_386" data-name="Path 386" d="M31.6,88.592A3.587,3.587,0,1,0,28.021,85,3.594,3.594,0,0,0,31.6,88.592" transform="translate(-14.042 -40.802)" fill="#fff"/>
      <path id="Path_387" data-name="Path 387" d="M17.12,124.095H66.659V84.971c-3.617.361-7.982,8.324-7.982,8.324a4.671,4.671,0,0,0-4.7,3.622c1.441-1.807,4.7-.361,4.7-.361v20.3H31.144V79.168L24.261,86.42c-2.9-.362-5.064,3.243-5.064,3.243,1.453-1.436,4.7,0,4.7,0v4C2.536,102.352,2.536,113.223,2.536,113.223v10.871H18.193l.452-7.243H10.136l.359-5.441s5.074-7.234,13.041-9.423v14.864H17.023Z" transform="translate(-1.271 -39.673)" fill="#fff"/>
      <rect id="Rectangle_11" data-name="Rectangle 11" width="7.62" height="26.47" transform="translate(22.266 86.577)" fill="#fff"/>
      <path id="Path_388" data-name="Path 388" d="M86.8,178.655a3.59,3.59,0,1,0-3.582-3.6,3.607,3.607,0,0,0,3.582,3.6" transform="translate(-41.701 -85.932)" fill="#fff"/>
      <path id="Path_389" data-name="Path 389" d="M104.946,178.655a3.59,3.59,0,1,0-3.58-3.6,3.588,3.588,0,0,0,3.58,3.6" transform="translate(-50.797 -85.932)" fill="#fff"/>
      <path id="Path_390" data-name="Path 390" d="M147.022,60.866V56.882s3.264-1.446,4.726.361a4.7,4.7,0,0,0-4.726-3.622s-4.34-7.962-7.959-8.324V68.476h52.171v-10.5s2.535-2.539,3.619-2.162V77.534H139.425v23.182c3.609-.349,7.969-8.318,7.969-8.318a4.682,4.682,0,0,0,4.711-3.629c-1.447,1.813-4.711.349-4.711.349V85.144h73.192V88.05s-1.082,1.807-3.626.365c0,0-.722,4.328,6.881,3.984a11.113,11.113,0,0,0,6.89,5.43c5.075,1.442,7.607,2.174,7.607,4.348V83.7h21.727a26.927,26.927,0,0,1,0-6.168c.382-3.984-1.437-10.506-5.791-13.413,0,0,1.451-2.168,3.265-.349,0,0-3.265-4.349-6.881-2.18a19.687,19.687,0,0,0-9.781,1.454S251.01,65.579,252.1,73.195v3.984H238.338V11.952s3.978-1.816,5.432,0a4.688,4.688,0,0,0-4.7-3.617S234.718.365,231.086,0V90.212a7.1,7.1,0,0,1-3.258-6.153V77.534H201.741V44.93a13.613,13.613,0,0,1-5.439,2.9c-3.623,1.081-7.959,3.256-9.043,5.43,0,0-5.806-1.443-6.9,2.894,0,0,3.264-.337,3.264.732v3.984Z" transform="translate(-69.689)" fill="#fff"/>
      <path id="Path_391" data-name="Path 391" d="M354.063,180.1a3.59,3.59,0,1,0-3.59-3.586,3.59,3.59,0,0,0,3.59,3.586" transform="translate(-175.632 -86.655)" fill="#fff"/>
      <path id="Path_392" data-name="Path 392" d="M39.3,240.665h14.3v17.4s-1.087-2.177,6.529-3.62c7.593-1.448,8.331-6.884,8.331-6.884,9.051,2.174,6.154-5.436,6.154-5.436-.718,3.635-3.62,1.088-3.62,1.088v-2.894h81.522v2.532c-.37,3.979-3.268-.359-3.268-.359-.358,7.962,6.162,5.43,6.162,5.43,1.093,3.268,6.522,6.893,9.783,7.6a10.538,10.538,0,0,1,5.424,3.644V240.317h6.36l.62-7.252h-7.329V217.493s10.513,4.342,11.955,7.962c0,0,2.529,1.81,2.529,7.61H177.07l-1.192,7.252H192v-9.432c0-10.492-12.308-17.021-17.029-18.833-4.7-1.8-12.3-7.246-12.3-7.246v40.952c-2.542-.367-3.271-3.635-3.271-3.635v-9.058H146v-29.7s.355,1.445-2.533,2.888c-2.918,1.454-3.629,5.068-3.629,5.068a6.637,6.637,0,0,0-4.713,4.354c.364-2.174,4.352-.364,4.352-.364V232.7h-5.8V203.719s.364,1.449-2.539,2.891-3.62,5.074-3.62,5.074a6.585,6.585,0,0,0-4.7,4.355c.355-2.175,4.349-.368,4.349-.368V232.7h-5.451V203.719s.371,1.449-2.518,2.891c-2.909,1.452-3.638,5.074-3.638,5.074a6.619,6.619,0,0,0-4.706,4.355c.364-2.175,4.354-.368,4.354-.368V232.7H98.532V203.719c-2.175,2.891-4.715,3.273-8.328,4.343a10.1,10.1,0,0,0-5.432,4.716c-6.166,1.454-7.253,7.615-7.979,10.859-.733,3.267-2.53,4.355-2.53,4.355H87.709l.578-5.906h-3.4a3.35,3.35,0,0,1,3.379-3.506C88.5,216.765,91.3,215.8,91.3,215.8v6.288H86.9l-.4,5.906h5.154V232.7h-27.9a81.676,81.676,0,0,1,0,9.79,3.915,3.915,0,0,1-3.263,3.62V216.039H21.007a7.845,7.845,0,0,0-5.442,2.541L7.228,233.432H3.247l1.075,7.233H39.3l.178-7.6H15.925l3.748-6.875s1.334-2.174,5.311-2.174H53.239v9.049H39.1Z" transform="translate(-1.627 -101.91)" fill="#fff"/>
      <path id="Path_393" data-name="Path 393" d="M163.848,201.181a3.591,3.591,0,1,0,0-7.182,3.591,3.591,0,0,0,0,7.182" transform="translate(-80.312 -97.219)" fill="#fff"/>
      <path id="Path_394" data-name="Path 394" d="M182.009,201.181a3.591,3.591,0,1,0-3.582-3.6,3.614,3.614,0,0,0,3.582,3.6" transform="translate(-89.415 -97.219)" fill="#fff"/>
      <path id="Path_395" data-name="Path 395" d="M0,353.056,2.695,339.3l4.389,9.941,4.549-9.941,2.405,13.756H12.082l-1.256-7.73-3.773,8.321L3.378,345.32,2,353.056Z" transform="translate(0 -170.034)" fill="#fff"/>
      <path id="Path_396" data-name="Path 396" d="M0,353.056,2.695,339.3l4.389,9.941,4.549-9.941,2.405,13.756H12.082l-1.256-7.73-3.773,8.321L3.378,345.32,2,353.056Z" transform="translate(0 -170.034)" fill="#fff"/>
      <path id="Path_397" data-name="Path 397" d="M35.531,341.207v7.706a4.211,4.211,0,0,0,.544,2.416,2.874,2.874,0,0,0,4.526,0,4.12,4.12,0,0,0,.544-2.416v-7.706h1.924v8.233a4.736,4.736,0,1,1-9.469,0v-8.233Z" transform="translate(-16.837 -170.989)" fill="#fff"/>
      <path id="Path_398" data-name="Path 398" d="M35.531,341.207v7.706a4.211,4.211,0,0,0,.544,2.416,2.874,2.874,0,0,0,4.526,0,4.12,4.12,0,0,0,.544-2.416v-7.706h1.924v8.233a4.736,4.736,0,1,1-9.469,0v-8.233Z" transform="translate(-16.837 -170.989)" fill="#fff"/>
      <path id="Path_399" data-name="Path 399" d="M65.33,342.863l-1.567.933a2.694,2.694,0,0,0-.83-.991,2,2,0,0,0-1.071-.268,1.968,1.968,0,0,0-1.326.458,1.373,1.373,0,0,0-.542,1.123c0,.632.461,1.126,1.4,1.509l1.264.533a5.464,5.464,0,0,1,2.287,1.539,3.516,3.516,0,0,1,.712,2.232,3.908,3.908,0,0,1-1.182,2.906,3.967,3.967,0,0,1-2.935,1.157,3.919,3.919,0,0,1-2.746-.979,4.57,4.57,0,0,1-1.337-2.786l1.955-.425a3.065,3.065,0,0,0,.466,1.539,1.974,1.974,0,0,0,1.736.846,2.006,2.006,0,0,0,1.5-.611,2.092,2.092,0,0,0,.587-1.527,3.2,3.2,0,0,0-.088-.681,1.978,1.978,0,0,0-.331-.584,2.714,2.714,0,0,0-.562-.487,5.485,5.485,0,0,0-.839-.422l-1.227-.527c-1.736-.738-2.629-1.813-2.629-3.237a3.106,3.106,0,0,1,1.1-2.415,3.984,3.984,0,0,1,2.757-.972,3.833,3.833,0,0,1,3.448,2.138" transform="translate(-28.792 -170.748)" fill="#fff"/>
      <path id="Path_400" data-name="Path 400" d="M65.33,342.863l-1.567.933a2.694,2.694,0,0,0-.83-.991,2,2,0,0,0-1.071-.268,1.968,1.968,0,0,0-1.326.458,1.373,1.373,0,0,0-.542,1.123c0,.632.461,1.126,1.4,1.509l1.264.533a5.464,5.464,0,0,1,2.287,1.539,3.516,3.516,0,0,1,.712,2.232,3.908,3.908,0,0,1-1.182,2.906,3.967,3.967,0,0,1-2.935,1.157,3.919,3.919,0,0,1-2.746-.979,4.57,4.57,0,0,1-1.337-2.786l1.955-.425a3.065,3.065,0,0,0,.466,1.539,1.974,1.974,0,0,0,1.736.846,2.006,2.006,0,0,0,1.5-.611,2.092,2.092,0,0,0,.587-1.527,3.2,3.2,0,0,0-.088-.681,1.978,1.978,0,0,0-.331-.584,2.714,2.714,0,0,0-.562-.487,5.485,5.485,0,0,0-.839-.422l-1.227-.527c-1.736-.738-2.629-1.813-2.629-3.237a3.106,3.106,0,0,1,1.1-2.415,3.984,3.984,0,0,1,2.757-.972,3.833,3.833,0,0,1,3.448,2.138" transform="translate(-28.792 -170.748)" fill="#fff"/>
      <path id="Path_401" data-name="Path 401" d="M87.4,341.652v2.295a5.382,5.382,0,0,0-3.465-1.41,4.408,4.408,0,0,0-3.323,1.418,4.8,4.8,0,0,0-1.369,3.451,4.706,4.706,0,0,0,1.369,3.4,4.474,4.474,0,0,0,3.329,1.379,4.008,4.008,0,0,0,1.735-.334,4.831,4.831,0,0,0,.824-.451,9.745,9.745,0,0,0,.9-.674v2.333a7.021,7.021,0,0,1-3.493.934,6.447,6.447,0,0,1-4.674-1.906,6.334,6.334,0,0,1-1.923-4.655,6.5,6.5,0,0,1,1.619-4.361,6.365,6.365,0,0,1,5.142-2.346,6.645,6.645,0,0,1,3.329.927" transform="translate(-38.744 -170.748)" fill="#fff"/>
      <path id="Path_402" data-name="Path 402" d="M87.4,341.652v2.295a5.382,5.382,0,0,0-3.465-1.41,4.408,4.408,0,0,0-3.323,1.418,4.8,4.8,0,0,0-1.369,3.451,4.706,4.706,0,0,0,1.369,3.4,4.474,4.474,0,0,0,3.329,1.379,4.008,4.008,0,0,0,1.735-.334,4.831,4.831,0,0,0,.824-.451,9.745,9.745,0,0,0,.9-.674v2.333a7.021,7.021,0,0,1-3.493.934,6.447,6.447,0,0,1-4.674-1.906,6.334,6.334,0,0,1-1.923-4.655,6.5,6.5,0,0,1,1.619-4.361,6.365,6.365,0,0,1,5.142-2.346,6.645,6.645,0,0,1,3.329.927" transform="translate(-38.744 -170.748)" fill="#fff"/>
      <path id="Path_403" data-name="Path 403" d="M108.288,348.269l-1.9-4.349-1.988,4.349Zm.787,1.831H103.6l-1.424,3.107H100.1l6.33-13.605,6.106,13.605h-2.126Z" transform="translate(-50.163 -170.185)" fill="#fff"/>
      <path id="Path_404" data-name="Path 404" d="M108.288,348.269l-1.9-4.349-1.988,4.349Zm.787,1.831H103.6l-1.424,3.107H100.1l6.33-13.605,6.106,13.605h-2.126Z" transform="translate(-50.163 -170.185)" fill="#fff"/>
      <path id="Path_405" data-name="Path 405" d="M128.988,343.032v10.979h-1.937V343.032H124.1v-1.825h7.8v1.825Z" transform="translate(-62.191 -170.989)" fill="#fff"/>
      <path id="Path_406" data-name="Path 406" d="M128.988,343.032v10.979h-1.937V343.032H124.1v-1.825h7.8v1.825Z" transform="translate(-62.191 -170.989)" fill="#fff"/>
      <path id="Path_407" data-name="Path 407" d="M152.805,353.056l2.7-13.756,4.389,9.941,4.552-9.941,2.414,13.756h-1.979l-1.236-7.73-3.791,8.321-3.67-8.327-1.385,7.736Z" transform="translate(-76.575 -170.034)" fill="#fff"/>
      <path id="Path_408" data-name="Path 408" d="M152.805,353.056l2.7-13.756,4.389,9.941,4.552-9.941,2.414,13.756h-1.979l-1.236-7.73-3.791,8.321-3.67-8.327-1.385,7.736Z" transform="translate(-76.575 -170.034)" fill="#fff"/>
      <path id="Path_409" data-name="Path 409" d="M188.351,341.207v7.706a4.289,4.289,0,0,0,.538,2.416,2.872,2.872,0,0,0,4.523,0,4.124,4.124,0,0,0,.543-2.416v-7.706h1.931v8.233a4.625,4.625,0,0,1-4.737,4.794,4.624,4.624,0,0,1-4.729-4.794v-8.233Z" transform="translate(-93.42 -170.989)" fill="#fff"/>
      <path id="Path_410" data-name="Path 410" d="M188.351,341.207v7.706a4.289,4.289,0,0,0,.538,2.416,2.872,2.872,0,0,0,4.523,0,4.124,4.124,0,0,0,.543-2.416v-7.706h1.931v8.233a4.625,4.625,0,0,1-4.737,4.794,4.624,4.624,0,0,1-4.729-4.794v-8.233Z" transform="translate(-93.42 -170.989)" fill="#fff"/>
      <path id="Path_411" data-name="Path 411" d="M211.563,353.137V339.463l9.317,9.766v-8.9h1.945v13.582l-9.335-9.739v8.961Z" transform="translate(-106.021 -170.115)" fill="#fff"/>
      <path id="Path_412" data-name="Path 412" d="M211.563,353.137V339.463l9.317,9.766v-8.9h1.945v13.582l-9.335-9.739v8.961Z" transform="translate(-106.021 -170.115)" fill="#fff"/>
      <rect id="Rectangle_12" data-name="Rectangle 12" width="1.94" height="12.804" transform="translate(119.859 170.218)" fill="#fff"/>
      <rect id="Rectangle_13" data-name="Rectangle 13" width="1.94" height="12.804" transform="translate(119.859 170.218)" fill="#fff"/>
      <path id="Path_413" data-name="Path 413" d="M259.126,341.652v2.295a5.359,5.359,0,0,0-3.46-1.41,4.425,4.425,0,0,0-3.325,1.418,4.774,4.774,0,0,0-1.357,3.451,4.68,4.68,0,0,0,1.357,3.4,4.525,4.525,0,0,0,3.331,1.379,3.937,3.937,0,0,0,1.731-.334,3.785,3.785,0,0,0,.813-.451,10.515,10.515,0,0,0,.909-.674v2.333a6.989,6.989,0,0,1-3.482.934,6.41,6.41,0,0,1-4.676-1.906,6.334,6.334,0,0,1-1.931-4.655,6.615,6.615,0,0,1,1.615-4.361,6.388,6.388,0,0,1,5.143-2.346,6.659,6.659,0,0,1,3.331.927" transform="translate(-124.8 -170.748)" fill="#fff"/>
      <path id="Path_414" data-name="Path 414" d="M259.126,341.652v2.295a5.359,5.359,0,0,0-3.46-1.41,4.425,4.425,0,0,0-3.325,1.418,4.774,4.774,0,0,0-1.357,3.451,4.68,4.68,0,0,0,1.357,3.4,4.525,4.525,0,0,0,3.331,1.379,3.937,3.937,0,0,0,1.731-.334,3.785,3.785,0,0,0,.813-.451,10.515,10.515,0,0,0,.909-.674v2.333a6.989,6.989,0,0,1-3.482.934,6.41,6.41,0,0,1-4.676-1.906,6.334,6.334,0,0,1-1.931-4.655,6.615,6.615,0,0,1,1.615-4.361,6.388,6.388,0,0,1,5.143-2.346,6.659,6.659,0,0,1,3.331.927" transform="translate(-124.8 -170.748)" fill="#fff"/>
      <rect id="Rectangle_14" data-name="Rectangle 14" width="1.931" height="12.804" transform="translate(136.764 170.218)" fill="#fff"/>
      <rect id="Rectangle_15" data-name="Rectangle 15" width="1.931" height="12.804" transform="translate(136.764 170.218)" fill="#fff"/>
      <path id="Path_415" data-name="Path 415" d="M286.1,347.026h.723c1.761,0,2.656-.7,2.656-2.048,0-1.328-.915-1.99-2.734-1.99H286.1Zm0,1.779v5.207h-1.945v-12.8h2.192a9.145,9.145,0,0,1,2.433.235,3.239,3.239,0,0,1,1.467.84,3.649,3.649,0,0,1,1.1,2.71,3.562,3.562,0,0,1-1.18,2.8A4.665,4.665,0,0,1,287,348.806Z" transform="translate(-142.4 -170.99)" fill="#fff"/>
      <path id="Path_416" data-name="Path 416" d="M286.1,347.026h.723c1.761,0,2.656-.7,2.656-2.048,0-1.328-.915-1.99-2.734-1.99H286.1Zm0,1.779v5.207h-1.945v-12.8h2.192a9.145,9.145,0,0,1,2.433.235,3.239,3.239,0,0,1,1.467.84,3.649,3.649,0,0,1,1.1,2.71,3.562,3.562,0,0,1-1.18,2.8A4.665,4.665,0,0,1,287,348.806Z" transform="translate(-142.4 -170.99)" fill="#fff"/>
      <path id="Path_417" data-name="Path 417" d="M305.921,348.269l-1.888-4.349-2,4.349Zm.8,1.831h-5.493l-1.421,3.107h-2.076l6.342-13.605,6.1,13.605h-2.108Z" transform="translate(-149.199 -170.185)" fill="#fff"/>
      <path id="Path_418" data-name="Path 418" d="M305.921,348.269l-1.888-4.349-2,4.349Zm.8,1.831h-5.493l-1.421,3.107h-2.076l6.342-13.605,6.1,13.605h-2.108Z" transform="translate(-149.199 -170.185)" fill="#fff"/>
      <path id="Path_419" data-name="Path 419" d="M327.8,341.207V352.2h3.77v1.813h-5.7v-12.8Z" transform="translate(-163.3 -170.989)" fill="#fff"/>
      <path id="Path_420" data-name="Path 420" d="M327.8,341.207V352.2h3.77v1.813h-5.7v-12.8Z" transform="translate(-163.3 -170.989)" fill="#fff"/>
      <rect id="Rectangle_16" data-name="Rectangle 16" width="1.927" height="12.804" transform="translate(170.095 170.218)" fill="#fff"/>
      <rect id="Rectangle_17" data-name="Rectangle 17" width="1.927" height="12.804" transform="translate(170.095 170.218)" fill="#fff"/>
      <path id="Path_421" data-name="Path 421" d="M353.179,343.032v10.979h-1.945V343.032H348.3v-1.825h7.818v1.825Z" transform="translate(-174.544 -170.989)" fill="#fff"/>
      <path id="Path_422" data-name="Path 422" d="M353.179,343.032v10.979h-1.945V343.032H348.3v-1.825h7.818v1.825Z" transform="translate(-174.544 -170.989)" fill="#fff"/>
      <path id="Path_423" data-name="Path 423" d="M370.046,348.483l-4.18-7.276h2.226l2.918,5.107,2.942-5.107h2.222l-4.195,7.276v5.529h-1.934Z" transform="translate(-183.346 -170.989)" fill="#fff"/>
      <path id="Path_424" data-name="Path 424" d="M370.046,348.483l-4.18-7.276h2.226l2.918,5.107,2.942-5.107h2.222l-4.195,7.276v5.529h-1.934Z" transform="translate(-183.346 -170.989)" fill="#fff"/>
    </g>
  </g>
</svg>
