<svg id="twitter" xmlns="http://www.w3.org/2000/svg" width="26.175" height="21.231" viewBox="0 0 26.175 21.231">
  <path id="Path_2" data-name="Path 2" d="M46.289,23.231A15.133,15.133,0,0,0,61.557,7.962V7.235a11.821,11.821,0,0,0,2.617-2.763,12.072,12.072,0,0,1-3.054.872,5.657,5.657,0,0,0,2.327-2.908A13.338,13.338,0,0,1,60.1,3.745,5.193,5.193,0,0,0,56.177,2,5.463,5.463,0,0,0,50.8,7.38a2.835,2.835,0,0,0,.145,1.163A15.034,15.034,0,0,1,39.89,2.872a5.569,5.569,0,0,0-.727,2.763,5.778,5.778,0,0,0,2.327,4.508,4.9,4.9,0,0,1-2.472-.727h0a5.314,5.314,0,0,0,4.362,5.235,4.483,4.483,0,0,1-1.454.145,2.475,2.475,0,0,1-1.018-.145A5.509,5.509,0,0,0,46,18.432a10.979,10.979,0,0,1-6.689,2.327A4.026,4.026,0,0,1,38,20.613a13.726,13.726,0,0,0,8.289,2.617" transform="translate(-38 -2)" fill="#fff" fill-rule="evenodd"/>
</svg>
